<?xml version="1.0" encoding="UTF-8"?>
<svg version="1.1" xmlns="http://www.w3.org/2000/svg" width="348" height="348">
<path d="M0 0 C114.84 0 229.68 0 348 0 C348 114.84 348 229.68 348 348 C233.16 348 118.32 348 0 348 C0 233.16 0 118.32 0 0 Z " fill="#B1B0B0" transform="translate(0,0)"/>
<path d="M0 0 C114.84 0 229.68 0 348 0 C348 114.84 348 229.68 348 348 C233.16 348 118.32 348 0 348 C0 233.16 0 118.32 0 0 Z M133 26 C131.91138672 26.27239502 131.91138672 26.27239502 130.80078125 26.55029297 C114.81906164 30.70123362 98.69316939 39.54909556 86 50 C85.22003662 50.63421875 85.22003662 50.63421875 84.42431641 51.28125 C80.54588977 54.44419509 76.75511432 57.69157249 73 61 C72.29230469 61.62132812 71.58460937 62.24265625 70.85546875 62.8828125 C43.35225893 88.70687898 27.54136744 127.68022461 26 165 C25.94714844 166.24652344 25.89429687 167.49304688 25.83984375 168.77734375 C25.36491985 185.83587652 28.30052101 202.64581313 33 219 C33.48533203 220.77310547 33.48533203 220.77310547 33.98046875 222.58203125 C40.08820485 242.93380171 51.68282449 261.60050102 66.1875 277.01171875 C68 279 68 279 70 282 C70.66 282 71.32 282 72 282 C72 282.66 72 283.32 72 284 C72.66 284 73.32 284 74 284 C74 284.66 74 285.32 74 286 C99.87221095 310.52415988 134.48247392 324.47269845 170 325 C170.97839844 325.03867187 171.95679688 325.07734375 172.96484375 325.1171875 C208.78422797 326.06395536 244.19773216 309.55855185 269.8515625 285.40234375 C283.30429367 272.47654449 293.42205268 258.52980046 302 242 C302.48082031 241.08089844 302.96164062 240.16179687 303.45703125 239.21484375 C309.88508931 226.01181655 313.55295667 211.41819053 316 197 C316.17128418 196.10853271 316.34256836 195.21706543 316.51904297 194.29858398 C317.06843636 190.53063776 317.19803366 186.82284704 317.23828125 183.0234375 C317.24802979 182.26440628 317.25777832 181.50537506 317.26782227 180.7233429 C317.43064121 164.76739149 317.52755606 149.44246009 313 134 C312.70319336 132.92999756 312.70319336 132.92999756 312.40039062 131.83837891 C301.18217356 91.63976774 276.0426758 59.0334049 239.98486328 38.11376953 C207.11068738 19.66703024 169.17919487 16.6805074 133 26 Z " fill="#F8F8F8" transform="translate(0,0)"/>
<path d="M0 0 C2.36222908 0.0168037 4.72448971 0.02960654 7.08676147 0.03858948 C13.27878713 0.07281415 19.46888706 0.16110157 25.66015625 0.26092529 C31.98801629 0.35329465 38.31619013 0.39416184 44.64453125 0.43945312 C57.04250885 0.53573054 69.43906251 0.68916548 81.8359375 0.87890625 C80.10939445 4.65320966 77.80797023 6.98307948 74.8359375 9.87890625 C73.2875423 12.97569665 73.61717416 15.43338357 73.8359375 18.87890625 C74.32320312 20.0803125 74.81046875 21.28171875 75.3125 22.51953125 C77.8530673 29.88913301 77.37612045 37.8566937 77.4609375 45.56640625 C77.50993416 48.6954235 77.56659017 51.82427073 77.625 54.953125 C77.63801147 55.71332443 77.65102295 56.47352386 77.66442871 57.25675964 C77.78083034 63.17526427 78.14585184 69.04384251 78.60888672 74.94604492 C79.300679 83.88206712 79.80347578 92.5943574 75.8359375 100.87890625 C73.96671096 102.74813279 71.33842581 102.17120854 68.84375 102.3046875 C66.8359375 101.87890625 66.8359375 101.87890625 65.25512695 100.33007812 C63.34569782 97.03218229 63.24764766 93.953306 63.12109375 90.234375 C63.08693863 89.48697556 63.05278351 88.73957611 63.01759338 87.9695282 C62.69476222 79.70057348 62.95448637 71.45596611 63.2734375 63.19140625 C63.37981656 60.22928283 63.4813265 57.26700848 63.58203125 54.3046875 C63.60767654 53.59250061 63.63332184 52.88031372 63.65974426 52.14654541 C63.85569797 46.36127709 63.83120604 40.59695936 63.71533203 34.80883789 C63.8645736 31.18323458 64.77101404 28.26707467 66.1015625 24.921875 C67.28615935 21.62642739 67.51997783 18.35446264 67.8359375 14.87890625 C60.3879719 19.44006348 53.87750261 24.91068834 47.29833984 30.61181641 C45.38138806 32.27274792 43.45225497 33.9192822 41.5234375 35.56640625 C40.193125 36.71109375 40.193125 36.71109375 38.8359375 37.87890625 C39.1246875 38.966875 39.4134375 40.05484375 39.7109375 41.17578125 C43.37544232 55.45398307 44.8711241 66.62045137 37.10546875 79.8203125 C34.50795393 83.32092198 31.6738629 85.76008093 28.2734375 88.44140625 C23.16296095 92.47839723 19.65742854 95.71029795 17.9609375 102.25390625 C17.75574209 108.20457323 20.16312895 112.77863054 24.05859375 117.21875 C27.41058786 120.34973351 31.19880312 122.94016993 34.890625 125.65234375 C41.36785118 130.54892057 45.80645376 135.29758512 48.8359375 142.87890625 C49.4546875 144.42578125 49.4546875 144.42578125 50.0859375 146.00390625 C52.45957889 158.26772012 51.37095445 169.99099531 44.5859375 180.52734375 C35.95545005 192.12456127 21.68513758 197.4681691 7.8359375 199.87890625 C-12.04684956 202.65658059 -31.07725496 199.23685297 -47.421875 187.21875 C-53.86080699 182.00345269 -56.96068429 176.77975462 -58.1640625 168.56640625 C-58.65279339 159.95997446 -55.3132616 152.37217916 -49.9140625 145.78515625 C-39.17458764 134.08679971 -25.12839346 127.70750474 -9.1640625 126.87890625 C-4.82918769 126.80882744 -0.49898089 126.81943328 3.8359375 126.87890625 C3.48660156 126.21246094 3.13726562 125.54601562 2.77734375 124.859375 C-0.45117407 118.32002588 -2.6126129 112.26273596 -2.1640625 104.87890625 C-1.16796875 102.05859375 -1.16796875 102.05859375 -0.1640625 99.87890625 C-1.3396875 99.96140625 -2.5153125 100.04390625 -3.7265625 100.12890625 C-16.55309294 100.08838009 -27.91807269 95.37489606 -36.9140625 86.37890625 C-43.40792001 78.51076726 -45.06924885 68.73222908 -46.1640625 58.87890625 C-59.3640625 58.87890625 -72.5640625 58.87890625 -86.1640625 58.87890625 C-79.41152013 51.00094015 -79.41152013 51.00094015 -76.61328125 48.4140625 C-76.00121826 47.84510254 -75.38915527 47.27614258 -74.75854492 46.68994141 C-74.12924072 46.1129248 -73.49993652 45.5359082 -72.8515625 44.94140625 C-72.19583252 44.33603027 -71.54010254 43.7306543 -70.86450195 43.10693359 C-68.96824853 41.35996019 -67.06647918 39.6191616 -65.1640625 37.87890625 C-64.205 36.99332031 -63.2459375 36.10773438 -62.2578125 35.1953125 C-56.42018995 29.87890625 -56.42018995 29.87890625 -54.1640625 29.87890625 C-54.1640625 29.21890625 -54.1640625 28.55890625 -54.1640625 27.87890625 C-52.8359375 26.5390625 -52.8359375 26.5390625 -50.9140625 24.94140625 C-47.30036608 21.87040275 -43.77387475 18.71974513 -40.2890625 15.50390625 C-38.83387159 14.16221212 -37.37529242 12.82336184 -35.88000488 11.52650452 C-34.06587222 9.87553821 -34.06587222 9.87553821 -32.50183105 7.64427185 C-23.99822127 -2.38595548 -12.08620217 -0.2526572 0 0 Z " fill="#FEFEFE" transform="translate(174.1640625,72.12109375)"/>
<path d="M0 0 C2.36222908 0.0168037 4.72448971 0.02960654 7.08676147 0.03858948 C13.27878713 0.07281415 19.46888706 0.16110157 25.66015625 0.26092529 C31.98801629 0.35329465 38.31619013 0.39416184 44.64453125 0.43945312 C57.04250885 0.53573054 69.43906251 0.68916548 81.8359375 0.87890625 C80.10939445 4.65320966 77.80797023 6.98307948 74.8359375 9.87890625 C73.2875423 12.97569665 73.61717416 15.43338357 73.8359375 18.87890625 C74.32320312 20.0803125 74.81046875 21.28171875 75.3125 22.51953125 C77.8530673 29.88913301 77.37612045 37.8566937 77.4609375 45.56640625 C77.50993416 48.6954235 77.56659017 51.82427073 77.625 54.953125 C77.63801147 55.71332443 77.65102295 56.47352386 77.66442871 57.25675964 C77.78083034 63.17526427 78.14585184 69.04384251 78.60888672 74.94604492 C79.300679 83.88206712 79.80347578 92.5943574 75.8359375 100.87890625 C73.96671096 102.74813279 71.33842581 102.17120854 68.84375 102.3046875 C66.8359375 101.87890625 66.8359375 101.87890625 65.25512695 100.33007812 C63.34569782 97.03218229 63.24764766 93.953306 63.12109375 90.234375 C63.08693863 89.48697556 63.05278351 88.73957611 63.01759338 87.9695282 C62.69476222 79.70057348 62.95448637 71.45596611 63.2734375 63.19140625 C63.37981656 60.22928283 63.4813265 57.26700848 63.58203125 54.3046875 C63.60767654 53.59250061 63.63332184 52.88031372 63.65974426 52.14654541 C63.85569797 46.36127709 63.83120604 40.59695936 63.71533203 34.80883789 C63.8645736 31.18323458 64.77101404 28.26707467 66.1015625 24.921875 C67.28615935 21.62642739 67.51997783 18.35446264 67.8359375 14.87890625 C60.3879719 19.44006348 53.87750261 24.91068834 47.29833984 30.61181641 C45.38138806 32.27274792 43.45225497 33.9192822 41.5234375 35.56640625 C40.193125 36.71109375 40.193125 36.71109375 38.8359375 37.87890625 C39.1246875 39.01328125 39.4134375 40.14765625 39.7109375 41.31640625 C40.08642236 42.83711995 40.46139504 44.35796017 40.8359375 45.87890625 C41.02671875 46.62269531 41.2175 47.36648437 41.4140625 48.1328125 C42.64341549 53.18194083 43.02488272 57.68291267 42.8359375 62.87890625 C40.5259375 62.87890625 38.2159375 62.87890625 35.8359375 62.87890625 C35.8359375 57.92890625 35.8359375 52.97890625 35.8359375 47.87890625 C33.4846875 48.08515625 31.1334375 48.29140625 28.7109375 48.50390625 C25.82946458 48.62173714 23.74587092 48.38829711 20.8359375 47.87890625 C18.36660333 45.52654054 17.26180462 43.47265931 15.9140625 40.359375 C14.8377557 37.88308943 13.75105179 36.71147251 11.8359375 34.87890625 C11.8359375 34.21890625 11.8359375 33.55890625 11.8359375 32.87890625 C11.25199219 32.59144531 10.66804688 32.30398437 10.06640625 32.0078125 C8.69949732 31.31597943 7.34415769 30.5998449 6.01171875 29.84375 C1.11202953 27.14224421 -3.50107203 25.43813203 -9.1640625 25.87890625 C-12.34261967 26.91659686 -15.20238452 28.34454296 -18.1640625 29.87890625 C-19.6490625 30.37390625 -19.6490625 30.37390625 -21.1640625 30.87890625 C-27.05793708 40.08808528 -28.65087812 51.6487343 -26.48046875 62.203125 C-23.46242014 72.78507965 -18.90529694 80.83012105 -10.703125 88.1875 C-9.1640625 89.87890625 -9.1640625 89.87890625 -9.1640625 92.87890625 C-14.1140625 92.87890625 -19.0640625 92.87890625 -24.1640625 92.87890625 C-24.1640625 87.92890625 -24.1640625 82.97890625 -24.1640625 77.87890625 C-29.1140625 77.87890625 -34.0640625 77.87890625 -39.1640625 77.87890625 C-39.1640625 72.92890625 -39.1640625 67.97890625 -39.1640625 62.87890625 C-41.1440625 62.87890625 -43.1240625 62.87890625 -45.1640625 62.87890625 C-45.6590625 60.89890625 -45.6590625 60.89890625 -46.1640625 58.87890625 C-59.3640625 58.87890625 -72.5640625 58.87890625 -86.1640625 58.87890625 C-79.41152013 51.00094015 -79.41152013 51.00094015 -76.61328125 48.4140625 C-76.00121826 47.84510254 -75.38915527 47.27614258 -74.75854492 46.68994141 C-74.12924072 46.1129248 -73.49993652 45.5359082 -72.8515625 44.94140625 C-72.19583252 44.33603027 -71.54010254 43.7306543 -70.86450195 43.10693359 C-68.96824853 41.35996019 -67.06647918 39.6191616 -65.1640625 37.87890625 C-64.205 36.99332031 -63.2459375 36.10773438 -62.2578125 35.1953125 C-56.42018995 29.87890625 -56.42018995 29.87890625 -54.1640625 29.87890625 C-54.1640625 29.21890625 -54.1640625 28.55890625 -54.1640625 27.87890625 C-52.8359375 26.5390625 -52.8359375 26.5390625 -50.9140625 24.94140625 C-47.30036608 21.87040275 -43.77387475 18.71974513 -40.2890625 15.50390625 C-38.83387159 14.16221212 -37.37529242 12.82336184 -35.88000488 11.52650452 C-34.06587222 9.87553821 -34.06587222 9.87553821 -32.50183105 7.64427185 C-23.99822127 -2.38595548 -12.08620217 -0.2526572 0 0 Z " fill="#FCFCFC" transform="translate(174.1640625,72.12109375)"/>
<path d="M0 0 C7.24345918 5.39613402 11.75212567 12.10753104 13.140625 21.109375 C13.72139451 28.3875291 12.04592567 34.84464107 7.92578125 40.88671875 C0.86262199 49.05511565 -10.11899722 52.6024656 -20.546875 53.609375 C-34.13659572 54.18797665 -45.87050179 51.36902863 -56.671875 42.796875 C-61.93900012 37.88945599 -64.24306811 32.31065837 -64.91015625 25.19140625 C-65.12700773 17.4646457 -64.10777061 10.70237833 -58.90625 4.6953125 C-42.89113876 -10.12181798 -18.15380823 -11.53166435 0 0 Z " fill="#B1B0B0" transform="translate(199.671875,211.265625)"/>
<path d="M0 0 C2.66989322 1.74660416 4.66369422 3.77281517 6.7734375 6.16015625 C7.25554687 6.65128906 7.73765625 7.14242187 8.234375 7.6484375 C16.32448202 16.25187618 19.67690844 27.35187976 19.8046875 39.01171875 C19.28826259 48.17826096 16.49975851 56.73957711 9.7734375 63.16015625 C5.770174 66.04847575 2.25102887 67.51202047 -2.7265625 67.16015625 C-13.0264864 65.32592323 -19.83162544 59.02656891 -25.98828125 50.80859375 C-32.87614987 40.15581962 -36.15310785 27.95920348 -33.68359375 15.3984375 C-31.95978922 9.02702737 -29.65870388 4.06357124 -24.3515625 -0.08984375 C-15.85114425 -4.85007797 -8.51006193 -4.69230687 0 0 Z " fill="#B1B0B0" transform="translate(180.2265625,100.83984375)"/>
<path d="M0 0 C4.62 0 9.24 0 14 0 C14 4.95 14 9.9 14 15 C16.31 15 18.62 15 21 15 C20.70110623 22.92068481 18.143142 29.91482166 12.39453125 35.58300781 C9.97000504 37.75377396 7.49415733 39.83748988 4.9387207 41.85253906 C0.75407409 45.16654686 -2.37667256 48.00707663 -3.51171875 53.45703125 C-3.56972656 54.23433594 -3.62773437 55.01164062 -3.6875 55.8125 C-3.790625 57.194375 -3.89375 58.57625 -4 60 C-7.96 60 -11.92 60 -16 60 C-16 64.95 -16 69.9 -16 75 C-11.05 75 -6.1 75 -1 75 C-1 79.62 -1 84.24 -1 89 C-3.7534375 88.01 -3.7534375 88.01 -6.5625 87 C-19.54331677 83.03520705 -32.98322467 84.16748697 -45.3125 89.8125 C-52.08686573 93.57290676 -56.679316 97.55199296 -59.35546875 104.98828125 C-60.6274682 110.93198776 -60.2898825 116.96078128 -60 123 C-60.33 122.01 -60.66 121.02 -61 120 C-65.95 120 -70.9 120 -76 120 C-77.03270675 104.24165992 -77.03270675 104.24165992 -73.5625 99.5 C-71.890625 97.73046875 -71.890625 97.73046875 -70 96 C-69.00226563 94.97326172 -69.00226563 94.97326172 -67.984375 93.92578125 C-55.18675026 81.47341617 -37.71843238 78.82837611 -20.5625 78.96484375 C-19.2940625 78.98224609 -19.2940625 78.98224609 -18 79 C-18.34933594 78.33355469 -18.69867188 77.66710937 -19.05859375 76.98046875 C-22.28711157 70.44111963 -24.4485504 64.38382971 -24 57 C-23.00390625 54.1796875 -23.00390625 54.1796875 -22 52 C-23.175625 52.0825 -24.35125 52.165 -25.5625 52.25 C-38.38903044 52.20947384 -49.75401019 47.49598981 -58.75 38.5 C-63.92939964 32.25815941 -67.50703182 23.15860286 -67 15 C-65.02 15 -63.04 15 -61 15 C-61 19.95 -61 24.9 -61 30 C-56.05 30 -51.1 30 -46 30 C-46 34.95 -46 39.9 -46 45 C-41.05 45 -36.1 45 -31 45 C-30.505 44.01 -30.505 44.01 -30 43 C-29.29875 43.30035156 -28.5975 43.60070312 -27.875 43.91015625 C-21.67491306 46.39524545 -17.51743448 47.76743986 -11 46 C-4.77612158 43.13701592 -1.70789236 38.08647013 1 32 C4.15561412 21.3083759 3.04998902 10.57329528 0 0 Z " fill="#EEEEEE" transform="translate(196,120)"/>
<path d="M0 0 C-0.33 4.95 -0.66 9.9 -1 15 C-5.95 15 -10.9 15 -16 15 C-16 19.95 -16 24.9 -16 30 C-20.95 30 -25.9 30 -31 30 C-31 25.05 -31 20.1 -31 15 C-35.95 15 -40.9 15 -46 15 C-46 19.95 -46 24.9 -46 30 C-50.95 30 -55.9 30 -61 30 C-61 25.05 -61 20.1 -61 15 C-65.95 15 -70.9 15 -76 15 C-76 19.95 -76 24.9 -76 30 C-80.95 30 -85.9 30 -91 30 C-91 25.05 -91 20.1 -91 15 C-95.95 15 -100.9 15 -106 15 C-106 10.05 -106 5.1 -106 0 C-104.63875 0.391875 -103.2775 0.78375 -101.875 1.1875 C-86.60681848 5.29967776 -71.85652605 8.76459028 -56 9 C-55.02160156 9.03867187 -54.04320312 9.07734375 -53.03515625 9.1171875 C-36.6596818 9.55001942 -19.14147998 5.85352384 -4.00390625 -0.36328125 C-2 -1 -2 -1 0 0 Z " fill="#EEEEEE" transform="translate(226,315)"/>
<path d="M0 0 C4.95 0 9.9 0 15 0 C13.40569724 3.18860553 11.69898477 5.95695111 9.67480469 8.87084961 C-2.67655477 26.72742619 -10.1332424 45.94021257 -15 67 C-15.65686177 69.66922628 -16.32775004 72.33458788 -17 75 C-21.29 75 -25.58 75 -30 75 C-30 70.05 -30 65.1 -30 60 C-25.05 60 -20.1 60 -15 60 C-15 55.05 -15 50.1 -15 45 C-19.95 45 -24.9 45 -30 45 C-30 40.05 -30 35.1 -30 30 C-25.05 30 -20.1 30 -15 30 C-15 25.05 -15 20.1 -15 15 C-10.05 15 -5.1 15 0 15 C0 10.05 0 5.1 0 0 Z " fill="#FEFEFE" transform="translate(45,75)"/>
<path d="M0 0 C4.29 0 8.58 0 13 0 C13.29132812 1.30710938 13.58265625 2.61421875 13.8828125 3.9609375 C19.43758496 28.41115587 27.3467406 50.34910158 42.41796875 70.69921875 C44 73 44 73 44 75 C39.38 75 34.76 75 30 75 C30 70.05 30 65.1 30 60 C25.05 60 20.1 60 15 60 C15 55.05 15 50.1 15 45 C10.05 45 5.1 45 0 45 C0 40.05 0 35.1 0 30 C4.95 30 9.9 30 15 30 C15 25.05 15 20.1 15 15 C10.05 15 5.1 15 0 15 C0 10.05 0 5.1 0 0 Z " fill="#FEFEFE" transform="translate(15,195)"/>
<path d="M0 0 C1.39960916 0.04524808 2.79936074 0.08629448 4.19921875 0.12304688 C7.59267362 0.22836099 10.9843083 0.38976665 14.375 0.5625 C14.375 6.1725 14.375 11.7825 14.375 17.5625 C9.425 17.5625 4.475 17.5625 -0.625 17.5625 C-0.625 12.6125 -0.625 7.6625 -0.625 2.5625 C-5.575 2.5625 -10.525 2.5625 -15.625 2.5625 C-15.625 7.5125 -15.625 12.4625 -15.625 17.5625 C-20.575 17.5625 -25.525 17.5625 -30.625 17.5625 C-30.625 22.5125 -30.625 27.4625 -30.625 32.5625 C-36.895 32.5625 -43.165 32.5625 -49.625 32.5625 C-48.635 31.0775 -48.635 31.0775 -47.625 29.5625 C-46.965 29.5625 -46.305 29.5625 -45.625 29.5625 C-45.625 28.9025 -45.625 28.2425 -45.625 27.5625 C-44.296875 26.22265625 -44.296875 26.22265625 -42.375 24.625 C-38.76130358 21.5539965 -35.23481225 18.40333888 -31.75 15.1875 C-30.30472389 13.85494738 -28.85762472 12.52398832 -27.38525391 11.22143555 C-25.51375823 9.5086734 -25.51375823 9.5086734 -23.56396484 7.22583008 C-16.38025631 -0.36993585 -9.86291388 -0.55940665 0 0 Z " fill="#FDFDFD" transform="translate(165.625,72.4375)"/>
<path d="M0 0 C1.7325 0.680625 1.7325 0.680625 3.5 1.375 C17.70601014 6.02869298 30.59616373 4.95671969 45 2 C45 4.31 45 6.62 45 9 C39.60814439 11.19288876 34.71711425 12.62716157 28.9375 13.25 C27.84646973 13.3722998 27.84646973 13.3722998 26.73339844 13.49707031 C17.62986605 14.39282317 8.57378696 14.42951479 0 11 C0 7.37 0 3.74 0 0 Z " fill="#EEEEEE" transform="translate(150,259)"/>
<path d="M0 0 C4.29 0 8.58 0 13 0 C14.0209375 2.9390625 14.0209375 2.9390625 15.0625 5.9375 C18.00013489 13.585337 22.05516584 19.24262338 27.9375 24.875 C30 27 30 27 30 30 C25.05 30 20.1 30 15 30 C15 25.05 15 20.1 15 15 C10.05 15 5.1 15 0 15 C0 10.05 0 5.1 0 0 Z " fill="#FEFEFE" transform="translate(135,135)"/>
<path d="M0 0 C4.95 0 9.9 0 15 0 C15 4.95 15 9.9 15 15 C19.95 15 24.9 15 30 15 C30 19.95 30 24.9 30 30 C25.97042741 27.31361828 22.55233469 24.85641126 18.9375 21.75 C15.30264792 18.68590982 11.73944357 16.22395687 7.58691406 13.96972656 C0.32922866 10.00336355 0.32922866 10.00336355 -0.8203125 6.5 C-0.8125 4 -0.8125 4 0 0 Z " fill="#FEFEFE" transform="translate(240,30)"/>
<path d="M0 0 C4.62 0 9.24 0 14 0 C12.35 1.32 10.7 2.64 9 4 C1.94401287 11.39198652 0.68296469 18.09089092 0.84643555 28.07202148 C0.88742077 29.71496722 0.94225789 31.35755782 1 33 C0.505 31.515 0.505 31.515 0 30 C-4.95 30 -9.9 30 -15 30 C-15 25.05 -15 20.1 -15 15 C-10.05 15 -5.1 15 0 15 C0 10.05 0 5.1 0 0 Z " fill="#EEEEEE" transform="translate(135,210)"/>
<path d="M0 0 C4.95 0 9.9 0 15 0 C15.44247928 3.09070112 15.71090615 5.02472611 15 8 C12.61470026 10.59043706 9.72088129 12.18905314 6.6875 13.9375 C5.03351976 14.95748979 3.38247091 15.98224817 1.734375 17.01171875 C0.52104492 17.76074463 0.52104492 17.76074463 -0.71679688 18.52490234 C-4.80738022 21.16768512 -8.43620246 24.2831327 -12.12890625 27.453125 C-14 29 -14 29 -15 29 C-15 24.38 -15 19.76 -15 15 C-10.05 15 -5.1 15 0 15 C0 10.05 0 5.1 0 0 Z " fill="#FEFEFE" transform="translate(90,30)"/>
<path d="M0 0 C4.95 0 9.9 0 15 0 C15 4.95 15 9.9 15 15 C19.95 15 24.9 15 30 15 C30 17.64 30 20.28 30 23 C24.6611706 21.33324351 19.57477398 19.19317497 14.4375 17 C12.76969573 16.29127948 11.10173161 15.58293499 9.43359375 14.875 C8.33615845 14.40707031 8.33615845 14.40707031 7.21655273 13.9296875 C4.82242699 12.92552065 2.41049951 11.9641998 0 11 C0 7.37 0 3.74 0 0 Z " fill="#EEEEEE" transform="translate(210,15)"/>
<path d="M0 0 C4.95 0 9.9 0 15 0 C15 3.3 15 6.6 15 10 C15.66 10.33 16.32 10.66 17 11 C16.030625 11.27972656 15.06125 11.55945312 14.0625 11.84765625 C3.99934274 14.83041048 -5.47441346 18.60454983 -15 23 C-15 20.36 -15 17.72 -15 15 C-10.05 15 -5.1 15 0 15 C0 10.05 0 5.1 0 0 Z " fill="#EEEEEE" transform="translate(120,15)"/>
<path d="M0 0 C2.53798696 0.09095676 5.03326771 0.23715174 7.5625 0.4375 C11.2440625 0.7159375 11.2440625 0.7159375 15 1 C15 5.95 15 10.9 15 16 C10.05 16 5.1 16 0 16 C-0.185625 13.545625 -0.37125 11.09125 -0.5625 8.5625 C-0.62381104 7.78849854 -0.68512207 7.01449707 -0.74829102 6.21704102 C-0.87169543 4.48038342 -0.9376445 2.73991955 -1 1 C-0.67 0.67 -0.34 0.34 0 0 Z " fill="#EEEEEE" transform="translate(270,284)"/>
<path d="M0 0 C4.95 0 9.9 0 15 0 C15 4.95 15 9.9 15 15 C10.05 15 5.1 15 0 15 C0 10.05 0 5.1 0 0 Z " fill="#FFFFFF" transform="translate(330,330)"/>
<path d="M0 0 C4.95 0 9.9 0 15 0 C15 4.95 15 9.9 15 15 C10.05 15 5.1 15 0 15 C0 10.05 0 5.1 0 0 Z " fill="#EEEEEE" transform="translate(315,330)"/>
<path d="M0 0 C4.95 0 9.9 0 15 0 C15 4.95 15 9.9 15 15 C10.05 15 5.1 15 0 15 C0 10.05 0 5.1 0 0 Z " fill="#EEEEEE" transform="translate(285,330)"/>
<path d="M0 0 C4.95 0 9.9 0 15 0 C15 4.95 15 9.9 15 15 C10.05 15 5.1 15 0 15 C0 10.05 0 5.1 0 0 Z " fill="#EEEEEE" transform="translate(255,330)"/>
<path d="M0 0 C4.95 0 9.9 0 15 0 C15 4.95 15 9.9 15 15 C10.05 15 5.1 15 0 15 C0 10.05 0 5.1 0 0 Z " fill="#EEEEEE" transform="translate(225,330)"/>
<path d="M0 0 C4.95 0 9.9 0 15 0 C15 4.95 15 9.9 15 15 C10.05 15 5.1 15 0 15 C0 10.05 0 5.1 0 0 Z " fill="#FFFFFF" transform="translate(150,330)"/>
<path d="M0 0 C4.95 0 9.9 0 15 0 C15 4.95 15 9.9 15 15 C10.05 15 5.1 15 0 15 C0 10.05 0 5.1 0 0 Z " fill="#EEEEEE" transform="translate(135,330)"/>
<path d="M0 0 C4.95 0 9.9 0 15 0 C15 4.95 15 9.9 15 15 C10.05 15 5.1 15 0 15 C0 10.05 0 5.1 0 0 Z " fill="#FFFFFF" transform="translate(120,330)"/>
<path d="M0 0 C4.95 0 9.9 0 15 0 C15 4.95 15 9.9 15 15 C10.05 15 5.1 15 0 15 C0 10.05 0 5.1 0 0 Z " fill="#EEEEEE" transform="translate(105,330)"/>
<path d="M0 0 C4.95 0 9.9 0 15 0 C15 4.95 15 9.9 15 15 C10.05 15 5.1 15 0 15 C0 10.05 0 5.1 0 0 Z " fill="#FFFFFF" transform="translate(90,330)"/>
<path d="M0 0 C4.95 0 9.9 0 15 0 C15 4.95 15 9.9 15 15 C10.05 15 5.1 15 0 15 C0 10.05 0 5.1 0 0 Z " fill="#EEEEEE" transform="translate(75,330)"/>
<path d="M0 0 C4.95 0 9.9 0 15 0 C15 4.95 15 9.9 15 15 C10.05 15 5.1 15 0 15 C0 10.05 0 5.1 0 0 Z " fill="#FFFFFF" transform="translate(60,330)"/>
<path d="M0 0 C4.95 0 9.9 0 15 0 C15 4.95 15 9.9 15 15 C10.05 15 5.1 15 0 15 C0 10.05 0 5.1 0 0 Z " fill="#EEEEEE" transform="translate(45,330)"/>
<path d="M0 0 C4.95 0 9.9 0 15 0 C15 4.95 15 9.9 15 15 C10.05 15 5.1 15 0 15 C0 10.05 0 5.1 0 0 Z " fill="#FFFFFF" transform="translate(30,330)"/>
<path d="M0 0 C4.95 0 9.9 0 15 0 C15 4.95 15 9.9 15 15 C10.05 15 5.1 15 0 15 C0 10.05 0 5.1 0 0 Z " fill="#EEEEEE" transform="translate(15,330)"/>
<path d="M0 0 C4.95 0 9.9 0 15 0 C15 4.95 15 9.9 15 15 C10.05 15 5.1 15 0 15 C0 10.05 0 5.1 0 0 Z " fill="#EEEEEE" transform="translate(330,315)"/>
<path d="M0 0 C4.95 0 9.9 0 15 0 C15 4.95 15 9.9 15 15 C10.05 15 5.1 15 0 15 C0 10.05 0 5.1 0 0 Z " fill="#FFFFFF" transform="translate(315,315)"/>
<path d="M0 0 C4.95 0 9.9 0 15 0 C15 4.95 15 9.9 15 15 C10.05 15 5.1 15 0 15 C0 10.05 0 5.1 0 0 Z " fill="#EEEEEE" transform="translate(300,315)"/>
<path d="M0 0 C4.95 0 9.9 0 15 0 C15 4.95 15 9.9 15 15 C10.05 15 5.1 15 0 15 C0 10.05 0 5.1 0 0 Z " fill="#FFFFFF" transform="translate(285,315)"/>
<path d="M0 0 C4.95 0 9.9 0 15 0 C15 4.95 15 9.9 15 15 C10.05 15 5.1 15 0 15 C0 10.05 0 5.1 0 0 Z " fill="#EEEEEE" transform="translate(270,315)"/>
<path d="M0 0 C4.95 0 9.9 0 15 0 C15 4.95 15 9.9 15 15 C10.05 15 5.1 15 0 15 C0 10.05 0 5.1 0 0 Z " fill="#FFFFFF" transform="translate(255,315)"/>
<path d="M0 0 C4.95 0 9.9 0 15 0 C15 4.95 15 9.9 15 15 C10.05 15 5.1 15 0 15 C0 10.05 0 5.1 0 0 Z " fill="#EEEEEE" transform="translate(240,315)"/>
<path d="M0 0 C4.95 0 9.9 0 15 0 C15 4.95 15 9.9 15 15 C10.05 15 5.1 15 0 15 C0 10.05 0 5.1 0 0 Z " fill="#EEEEEE" transform="translate(90,315)"/>
<path d="M0 0 C4.95 0 9.9 0 15 0 C15 4.95 15 9.9 15 15 C10.05 15 5.1 15 0 15 C0 10.05 0 5.1 0 0 Z " fill="#FFFFFF" transform="translate(75,315)"/>
<path d="M0 0 C4.95 0 9.9 0 15 0 C15 4.95 15 9.9 15 15 C10.05 15 5.1 15 0 15 C0 10.05 0 5.1 0 0 Z " fill="#EEEEEE" transform="translate(60,315)"/>
<path d="M0 0 C4.95 0 9.9 0 15 0 C15 4.95 15 9.9 15 15 C10.05 15 5.1 15 0 15 C0 10.05 0 5.1 0 0 Z " fill="#FFFFFF" transform="translate(45,315)"/>
<path d="M0 0 C4.95 0 9.9 0 15 0 C15 4.95 15 9.9 15 15 C10.05 15 5.1 15 0 15 C0 10.05 0 5.1 0 0 Z " fill="#EEEEEE" transform="translate(30,315)"/>
<path d="M0 0 C4.95 0 9.9 0 15 0 C15 4.95 15 9.9 15 15 C10.05 15 5.1 15 0 15 C0 10.05 0 5.1 0 0 Z " fill="#FFFFFF" transform="translate(15,315)"/>
<path d="M0 0 C4.95 0 9.9 0 15 0 C15 4.95 15 9.9 15 15 C10.05 15 5.1 15 0 15 C0 10.05 0 5.1 0 0 Z " fill="#EEEEEE" transform="translate(0,315)"/>
<path d="M0 0 C4.95 0 9.9 0 15 0 C15 4.95 15 9.9 15 15 C10.05 15 5.1 15 0 15 C0 10.05 0 5.1 0 0 Z " fill="#FFFFFF" transform="translate(330,300)"/>
<path d="M0 0 C4.95 0 9.9 0 15 0 C15 4.95 15 9.9 15 15 C10.05 15 5.1 15 0 15 C0 10.05 0 5.1 0 0 Z " fill="#EEEEEE" transform="translate(315,300)"/>
<path d="M0 0 C4.95 0 9.9 0 15 0 C15 4.95 15 9.9 15 15 C10.05 15 5.1 15 0 15 C0 10.05 0 5.1 0 0 Z " fill="#FFFFFF" transform="translate(300,300)"/>
<path d="M0 0 C4.95 0 9.9 0 15 0 C15 4.95 15 9.9 15 15 C10.05 15 5.1 15 0 15 C0 10.05 0 5.1 0 0 Z " fill="#EEEEEE" transform="translate(285,300)"/>
<path d="M0 0 C4.95 0 9.9 0 15 0 C15 4.95 15 9.9 15 15 C10.05 15 5.1 15 0 15 C0 10.05 0 5.1 0 0 Z " fill="#FFFFFF" transform="translate(270,300)"/>
<path d="M0 0 C4.95 0 9.9 0 15 0 C15 4.95 15 9.9 15 15 C10.05 15 5.1 15 0 15 C0 10.05 0 5.1 0 0 Z " fill="#EEEEEE" transform="translate(255,300)"/>
<path d="M0 0 C4.95 0 9.9 0 15 0 C15 4.95 15 9.9 15 15 C10.05 15 5.1 15 0 15 C0 10.05 0 5.1 0 0 Z " fill="#EEEEEE" transform="translate(75,300)"/>
<path d="M0 0 C4.95 0 9.9 0 15 0 C15 4.95 15 9.9 15 15 C10.05 15 5.1 15 0 15 C0 10.05 0 5.1 0 0 Z " fill="#FFFFFF" transform="translate(60,300)"/>
<path d="M0 0 C4.95 0 9.9 0 15 0 C15 4.95 15 9.9 15 15 C10.05 15 5.1 15 0 15 C0 10.05 0 5.1 0 0 Z " fill="#EEEEEE" transform="translate(45,300)"/>
<path d="M0 0 C4.95 0 9.9 0 15 0 C15 4.95 15 9.9 15 15 C10.05 15 5.1 15 0 15 C0 10.05 0 5.1 0 0 Z " fill="#FFFFFF" transform="translate(30,300)"/>
<path d="M0 0 C4.95 0 9.9 0 15 0 C15 4.95 15 9.9 15 15 C10.05 15 5.1 15 0 15 C0 10.05 0 5.1 0 0 Z " fill="#EEEEEE" transform="translate(15,300)"/>
<path d="M0 0 C4.95 0 9.9 0 15 0 C15 4.95 15 9.9 15 15 C10.05 15 5.1 15 0 15 C0 10.05 0 5.1 0 0 Z " fill="#FFFFFF" transform="translate(0,300)"/>
<path d="M0 0 C4.95 0 9.9 0 15 0 C15 4.95 15 9.9 15 15 C10.05 15 5.1 15 0 15 C0 10.05 0 5.1 0 0 Z " fill="#EEEEEE" transform="translate(330,285)"/>
<path d="M0 0 C4.95 0 9.9 0 15 0 C15 4.95 15 9.9 15 15 C10.05 15 5.1 15 0 15 C0 10.05 0 5.1 0 0 Z " fill="#FFFFFF" transform="translate(315,285)"/>
<path d="M0 0 C4.95 0 9.9 0 15 0 C15 4.95 15 9.9 15 15 C10.05 15 5.1 15 0 15 C0 10.05 0 5.1 0 0 Z " fill="#EEEEEE" transform="translate(300,285)"/>
<path d="M0 0 C4.95 0 9.9 0 15 0 C15 4.95 15 9.9 15 15 C10.05 15 5.1 15 0 15 C0 10.05 0 5.1 0 0 Z " fill="#FFFFFF" transform="translate(285,285)"/>
<path d="M0 0 C4.95 0 9.9 0 15 0 C15 4.95 15 9.9 15 15 C10.05 15 5.1 15 0 15 C0 10.05 0 5.1 0 0 Z " fill="#FFFFFF" transform="translate(45,285)"/>
<path d="M0 0 C4.95 0 9.9 0 15 0 C15 4.95 15 9.9 15 15 C10.05 15 5.1 15 0 15 C0 10.05 0 5.1 0 0 Z " fill="#EEEEEE" transform="translate(30,285)"/>
<path d="M0 0 C4.95 0 9.9 0 15 0 C15 4.95 15 9.9 15 15 C10.05 15 5.1 15 0 15 C0 10.05 0 5.1 0 0 Z " fill="#FFFFFF" transform="translate(15,285)"/>
<path d="M0 0 C4.95 0 9.9 0 15 0 C15 4.95 15 9.9 15 15 C10.05 15 5.1 15 0 15 C0 10.05 0 5.1 0 0 Z " fill="#EEEEEE" transform="translate(0,285)"/>
<path d="M0 0 C4.95 0 9.9 0 15 0 C15 4.95 15 9.9 15 15 C10.05 15 5.1 15 0 15 C0 10.05 0 5.1 0 0 Z " fill="#FFFFFF" transform="translate(330,270)"/>
<path d="M0 0 C4.95 0 9.9 0 15 0 C15 4.95 15 9.9 15 15 C10.05 15 5.1 15 0 15 C0 10.05 0 5.1 0 0 Z " fill="#EEEEEE" transform="translate(315,270)"/>
<path d="M0 0 C4.95 0 9.9 0 15 0 C15 4.95 15 9.9 15 15 C10.05 15 5.1 15 0 15 C0 10.05 0 5.1 0 0 Z " fill="#FFFFFF" transform="translate(300,270)"/>
<path d="M0 0 C4.95 0 9.9 0 15 0 C15 4.95 15 9.9 15 15 C10.05 15 5.1 15 0 15 C0 10.05 0 5.1 0 0 Z " fill="#EEEEEE" transform="translate(285,270)"/>
<path d="M0 0 C4.95 0 9.9 0 15 0 C15 4.95 15 9.9 15 15 C10.05 15 5.1 15 0 15 C0 10.05 0 5.1 0 0 Z " fill="#FFFFFF" transform="translate(30,270)"/>
<path d="M0 0 C4.95 0 9.9 0 15 0 C15 4.95 15 9.9 15 15 C10.05 15 5.1 15 0 15 C0 10.05 0 5.1 0 0 Z " fill="#EEEEEE" transform="translate(15,270)"/>
<path d="M0 0 C4.95 0 9.9 0 15 0 C15 4.95 15 9.9 15 15 C10.05 15 5.1 15 0 15 C0 10.05 0 5.1 0 0 Z " fill="#FFFFFF" transform="translate(0,270)"/>
<path d="M0 0 C4.95 0 9.9 0 15 0 C15 4.95 15 9.9 15 15 C10.05 15 5.1 15 0 15 C0 10.05 0 5.1 0 0 Z " fill="#EEEEEE" transform="translate(330,255)"/>
<path d="M0 0 C4.95 0 9.9 0 15 0 C15 4.95 15 9.9 15 15 C10.05 15 5.1 15 0 15 C0 10.05 0 5.1 0 0 Z " fill="#FFFFFF" transform="translate(315,255)"/>
<path d="M0 0 C4.95 0 9.9 0 15 0 C15 4.95 15 9.9 15 15 C10.05 15 5.1 15 0 15 C0 10.05 0 5.1 0 0 Z " fill="#EEEEEE" transform="translate(300,255)"/>
<path d="M0 0 C4.95 0 9.9 0 15 0 C15 4.95 15 9.9 15 15 C10.05 15 5.1 15 0 15 C0 10.05 0 5.1 0 0 Z " fill="#EEEEEE" transform="translate(30,255)"/>
<path d="M0 0 C4.95 0 9.9 0 15 0 C15 4.95 15 9.9 15 15 C10.05 15 5.1 15 0 15 C0 10.05 0 5.1 0 0 Z " fill="#FFFFFF" transform="translate(15,255)"/>
<path d="M0 0 C4.95 0 9.9 0 15 0 C15 4.95 15 9.9 15 15 C10.05 15 5.1 15 0 15 C0 10.05 0 5.1 0 0 Z " fill="#EEEEEE" transform="translate(0,255)"/>
<path d="M0 0 C4.95 0 9.9 0 15 0 C15 4.95 15 9.9 15 15 C10.05 15 5.1 15 0 15 C0 10.05 0 5.1 0 0 Z " fill="#FFFFFF" transform="translate(330,240)"/>
<path d="M0 0 C4.95 0 9.9 0 15 0 C15 4.95 15 9.9 15 15 C10.05 15 5.1 15 0 15 C0 10.05 0 5.1 0 0 Z " fill="#EEEEEE" transform="translate(315,240)"/>
<path d="M0 0 C4.95 0 9.9 0 15 0 C15 4.95 15 9.9 15 15 C10.05 15 5.1 15 0 15 C0 10.05 0 5.1 0 0 Z " fill="#EEEEEE" transform="translate(15,240)"/>
<path d="M0 0 C4.95 0 9.9 0 15 0 C15 4.95 15 9.9 15 15 C10.05 15 5.1 15 0 15 C0 10.05 0 5.1 0 0 Z " fill="#FFFFFF" transform="translate(0,240)"/>
<path d="M0 0 C4.95 0 9.9 0 15 0 C15 4.95 15 9.9 15 15 C10.05 15 5.1 15 0 15 C0 10.05 0 5.1 0 0 Z " fill="#EEEEEE" transform="translate(330,225)"/>
<path d="M0 0 C4.95 0 9.9 0 15 0 C15 4.95 15 9.9 15 15 C10.05 15 5.1 15 0 15 C0 10.05 0 5.1 0 0 Z " fill="#FFFFFF" transform="translate(315,225)"/>
<path d="M0 0 C4.95 0 9.9 0 15 0 C15 4.95 15 9.9 15 15 C10.05 15 5.1 15 0 15 C0 10.05 0 5.1 0 0 Z " fill="#FFFFFF" transform="translate(15,225)"/>
<path d="M0 0 C4.95 0 9.9 0 15 0 C15 4.95 15 9.9 15 15 C10.05 15 5.1 15 0 15 C0 10.05 0 5.1 0 0 Z " fill="#EEEEEE" transform="translate(0,225)"/>
<path d="M0 0 C4.95 0 9.9 0 15 0 C15 4.95 15 9.9 15 15 C10.05 15 5.1 15 0 15 C0 10.05 0 5.1 0 0 Z " fill="#FFFFFF" transform="translate(330,210)"/>
<path d="M0 0 C4.95 0 9.9 0 15 0 C15 4.95 15 9.9 15 15 C10.05 15 5.1 15 0 15 C0 10.05 0 5.1 0 0 Z " fill="#EEEEEE" transform="translate(315,210)"/>
<path d="M0 0 C4.95 0 9.9 0 15 0 C15 4.95 15 9.9 15 15 C10.05 15 5.1 15 0 15 C0 10.05 0 5.1 0 0 Z " fill="#EEEEEE" transform="translate(15,210)"/>
<path d="M0 0 C4.95 0 9.9 0 15 0 C15 4.95 15 9.9 15 15 C10.05 15 5.1 15 0 15 C0 10.05 0 5.1 0 0 Z " fill="#FFFFFF" transform="translate(0,210)"/>
<path d="M0 0 C4.95 0 9.9 0 15 0 C15 4.95 15 9.9 15 15 C10.05 15 5.1 15 0 15 C0 10.05 0 5.1 0 0 Z " fill="#EEEEEE" transform="translate(330,195)"/>
<path d="M0 0 C4.95 0 9.9 0 15 0 C15 4.95 15 9.9 15 15 C10.05 15 5.1 15 0 15 C0 10.05 0 5.1 0 0 Z " fill="#EEEEEE" transform="translate(0,195)"/>
<path d="M0 0 C4.95 0 9.9 0 15 0 C15 4.95 15 9.9 15 15 C10.05 15 5.1 15 0 15 C0 10.05 0 5.1 0 0 Z " fill="#FFFFFF" transform="translate(330,180)"/>
<path d="M0 0 C4.95 0 9.9 0 15 0 C15 4.95 15 9.9 15 15 C10.05 15 5.1 15 0 15 C0 10.05 0 5.1 0 0 Z " fill="#FFFFFF" transform="translate(0,180)"/>
<path d="M0 0 C4.95 0 9.9 0 15 0 C15 4.95 15 9.9 15 15 C10.05 15 5.1 15 0 15 C0 10.05 0 5.1 0 0 Z " fill="#FFFFFF" transform="translate(330,150)"/>
<path d="M0 0 C4.95 0 9.9 0 15 0 C15 4.95 15 9.9 15 15 C10.05 15 5.1 15 0 15 C0 10.05 0 5.1 0 0 Z " fill="#FFFFFF" transform="translate(0,150)"/>
<path d="M0 0 C4.95 0 9.9 0 15 0 C15 4.95 15 9.9 15 15 C10.05 15 5.1 15 0 15 C0 10.05 0 5.1 0 0 Z " fill="#EEEEEE" transform="translate(330,135)"/>
<path d="M0 0 C4.95 0 9.9 0 15 0 C15 4.95 15 9.9 15 15 C10.05 15 5.1 15 0 15 C0 10.05 0 5.1 0 0 Z " fill="#EEEEEE" transform="translate(0,135)"/>
<path d="M0 0 C4.95 0 9.9 0 15 0 C15 4.95 15 9.9 15 15 C10.05 15 5.1 15 0 15 C0 10.05 0 5.1 0 0 Z " fill="#FFFFFF" transform="translate(330,120)"/>
<path d="M0 0 C4.95 0 9.9 0 15 0 C15 4.95 15 9.9 15 15 C10.05 15 5.1 15 0 15 C0 10.05 0 5.1 0 0 Z " fill="#EEEEEE" transform="translate(315,120)"/>
<path d="M0 0 C4.95 0 9.9 0 15 0 C15 4.95 15 9.9 15 15 C10.05 15 5.1 15 0 15 C0 10.05 0 5.1 0 0 Z " fill="#EEEEEE" transform="translate(15,120)"/>
<path d="M0 0 C4.95 0 9.9 0 15 0 C15 4.95 15 9.9 15 15 C10.05 15 5.1 15 0 15 C0 10.05 0 5.1 0 0 Z " fill="#FFFFFF" transform="translate(0,120)"/>
<path d="M0 0 C4.95 0 9.9 0 15 0 C15 4.95 15 9.9 15 15 C10.05 15 5.1 15 0 15 C0 10.05 0 5.1 0 0 Z " fill="#EEEEEE" transform="translate(330,105)"/>
<path d="M0 0 C4.95 0 9.9 0 15 0 C15 4.95 15 9.9 15 15 C10.05 15 5.1 15 0 15 C0 10.05 0 5.1 0 0 Z " fill="#FFFFFF" transform="translate(315,105)"/>
<path d="M0 0 C4.95 0 9.9 0 15 0 C15 4.95 15 9.9 15 15 C10.05 15 5.1 15 0 15 C0 10.05 0 5.1 0 0 Z " fill="#EEEEEE" transform="translate(120,105)"/>
<path d="M0 0 C4.95 0 9.9 0 15 0 C15 4.95 15 9.9 15 15 C10.05 15 5.1 15 0 15 C0 10.05 0 5.1 0 0 Z " fill="#FFFFFF" transform="translate(15,105)"/>
<path d="M0 0 C4.95 0 9.9 0 15 0 C15 4.95 15 9.9 15 15 C10.05 15 5.1 15 0 15 C0 10.05 0 5.1 0 0 Z " fill="#EEEEEE" transform="translate(0,105)"/>
<path d="M0 0 C4.95 0 9.9 0 15 0 C15 4.95 15 9.9 15 15 C10.05 15 5.1 15 0 15 C0 10.05 0 5.1 0 0 Z " fill="#FFFFFF" transform="translate(330,90)"/>
<path d="M0 0 C4.95 0 9.9 0 15 0 C15 4.95 15 9.9 15 15 C10.05 15 5.1 15 0 15 C0 10.05 0 5.1 0 0 Z " fill="#EEEEEE" transform="translate(315,90)"/>
<path d="M0 0 C4.95 0 9.9 0 15 0 C15 4.95 15 9.9 15 15 C10.05 15 5.1 15 0 15 C0 10.05 0 5.1 0 0 Z " fill="#EEEEEE" transform="translate(195,90)"/>
<path d="M0 0 C4.95 0 9.9 0 15 0 C15 4.95 15 9.9 15 15 C10.05 15 5.1 15 0 15 C0 10.05 0 5.1 0 0 Z " fill="#EEEEEE" transform="translate(135,90)"/>
<path d="M0 0 C4.95 0 9.9 0 15 0 C15 4.95 15 9.9 15 15 C10.05 15 5.1 15 0 15 C0 10.05 0 5.1 0 0 Z " fill="#EEEEEE" transform="translate(15,90)"/>
<path d="M0 0 C4.95 0 9.9 0 15 0 C15 4.95 15 9.9 15 15 C10.05 15 5.1 15 0 15 C0 10.05 0 5.1 0 0 Z " fill="#FFFFFF" transform="translate(0,90)"/>
<path d="M0 0 C4.95 0 9.9 0 15 0 C15 4.95 15 9.9 15 15 C10.05 15 5.1 15 0 15 C0 10.05 0 5.1 0 0 Z " fill="#EEEEEE" transform="translate(330,75)"/>
<path d="M0 0 C4.95 0 9.9 0 15 0 C15 4.95 15 9.9 15 15 C10.05 15 5.1 15 0 15 C0 10.05 0 5.1 0 0 Z " fill="#FFFFFF" transform="translate(315,75)"/>
<path d="M0 0 C4.95 0 9.9 0 15 0 C15 4.95 15 9.9 15 15 C10.05 15 5.1 15 0 15 C0 10.05 0 5.1 0 0 Z " fill="#EEEEEE" transform="translate(300,75)"/>
<path d="M0 0 C4.95 0 9.9 0 15 0 C15 4.95 15 9.9 15 15 C10.05 15 5.1 15 0 15 C0 10.05 0 5.1 0 0 Z " fill="#EEEEEE" transform="translate(210,75)"/>
<path d="M0 0 C4.95 0 9.9 0 15 0 C15 4.95 15 9.9 15 15 C10.05 15 5.1 15 0 15 C0 10.05 0 5.1 0 0 Z " fill="#FFFFFF" transform="translate(195,75)"/>
<path d="M0 0 C4.95 0 9.9 0 15 0 C15 4.95 15 9.9 15 15 C10.05 15 5.1 15 0 15 C0 10.05 0 5.1 0 0 Z " fill="#EEEEEE" transform="translate(180,75)"/>
<path d="M0 0 C4.95 0 9.9 0 15 0 C15 4.95 15 9.9 15 15 C10.05 15 5.1 15 0 15 C0 10.05 0 5.1 0 0 Z " fill="#EEEEEE" transform="translate(150,75)"/>
<path d="M0 0 C4.95 0 9.9 0 15 0 C15 4.95 15 9.9 15 15 C10.05 15 5.1 15 0 15 C0 10.05 0 5.1 0 0 Z " fill="#EEEEEE" transform="translate(30,75)"/>
<path d="M0 0 C4.95 0 9.9 0 15 0 C15 4.95 15 9.9 15 15 C10.05 15 5.1 15 0 15 C0 10.05 0 5.1 0 0 Z " fill="#FFFFFF" transform="translate(15,75)"/>
<path d="M0 0 C4.95 0 9.9 0 15 0 C15 4.95 15 9.9 15 15 C10.05 15 5.1 15 0 15 C0 10.05 0 5.1 0 0 Z " fill="#EEEEEE" transform="translate(0,75)"/>
<path d="M0 0 C4.95 0 9.9 0 15 0 C15 4.95 15 9.9 15 15 C10.05 15 5.1 15 0 15 C0 10.05 0 5.1 0 0 Z " fill="#FFFFFF" transform="translate(330,60)"/>
<path d="M0 0 C4.95 0 9.9 0 15 0 C15 4.95 15 9.9 15 15 C10.05 15 5.1 15 0 15 C0 10.05 0 5.1 0 0 Z " fill="#EEEEEE" transform="translate(315,60)"/>
<path d="M0 0 C4.95 0 9.9 0 15 0 C15 4.95 15 9.9 15 15 C10.05 15 5.1 15 0 15 C0 10.05 0 5.1 0 0 Z " fill="#FFFFFF" transform="translate(300,60)"/>
<path d="M0 0 C4.95 0 9.9 0 15 0 C15 4.95 15 9.9 15 15 C10.05 15 5.1 15 0 15 C0 10.05 0 5.1 0 0 Z " fill="#EEEEEE" transform="translate(285,60)"/>
<path d="M0 0 C4.95 0 9.9 0 15 0 C15 4.95 15 9.9 15 15 C10.05 15 5.1 15 0 15 C0 10.05 0 5.1 0 0 Z " fill="#FFFFFF" transform="translate(30,60)"/>
<path d="M0 0 C4.95 0 9.9 0 15 0 C15 4.95 15 9.9 15 15 C10.05 15 5.1 15 0 15 C0 10.05 0 5.1 0 0 Z " fill="#EEEEEE" transform="translate(15,60)"/>
<path d="M0 0 C4.95 0 9.9 0 15 0 C15 4.95 15 9.9 15 15 C10.05 15 5.1 15 0 15 C0 10.05 0 5.1 0 0 Z " fill="#FFFFFF" transform="translate(0,60)"/>
<path d="M0 0 C4.95 0 9.9 0 15 0 C15 4.95 15 9.9 15 15 C10.05 15 5.1 15 0 15 C0 10.05 0 5.1 0 0 Z " fill="#EEEEEE" transform="translate(330,45)"/>
<path d="M0 0 C4.95 0 9.9 0 15 0 C15 4.95 15 9.9 15 15 C10.05 15 5.1 15 0 15 C0 10.05 0 5.1 0 0 Z " fill="#FFFFFF" transform="translate(315,45)"/>
<path d="M0 0 C4.95 0 9.9 0 15 0 C15 4.95 15 9.9 15 15 C10.05 15 5.1 15 0 15 C0 10.05 0 5.1 0 0 Z " fill="#EEEEEE" transform="translate(300,45)"/>
<path d="M0 0 C4.95 0 9.9 0 15 0 C15 4.95 15 9.9 15 15 C10.05 15 5.1 15 0 15 C0 10.05 0 5.1 0 0 Z " fill="#FFFFFF" transform="translate(285,45)"/>
<path d="M0 0 C4.95 0 9.9 0 15 0 C15 4.95 15 9.9 15 15 C10.05 15 5.1 15 0 15 C0 10.05 0 5.1 0 0 Z " fill="#EEEEEE" transform="translate(270,45)"/>
<path d="M0 0 C4.95 0 9.9 0 15 0 C15 4.95 15 9.9 15 15 C10.05 15 5.1 15 0 15 C0 10.05 0 5.1 0 0 Z " fill="#FFFFFF" transform="translate(45,45)"/>
<path d="M0 0 C4.95 0 9.9 0 15 0 C15 4.95 15 9.9 15 15 C10.05 15 5.1 15 0 15 C0 10.05 0 5.1 0 0 Z " fill="#EEEEEE" transform="translate(30,45)"/>
<path d="M0 0 C4.95 0 9.9 0 15 0 C15 4.95 15 9.9 15 15 C10.05 15 5.1 15 0 15 C0 10.05 0 5.1 0 0 Z " fill="#FFFFFF" transform="translate(15,45)"/>
<path d="M0 0 C4.95 0 9.9 0 15 0 C15 4.95 15 9.9 15 15 C10.05 15 5.1 15 0 15 C0 10.05 0 5.1 0 0 Z " fill="#EEEEEE" transform="translate(0,45)"/>
<path d="M0 0 C4.95 0 9.9 0 15 0 C15 4.95 15 9.9 15 15 C10.05 15 5.1 15 0 15 C0 10.05 0 5.1 0 0 Z " fill="#FFFFFF" transform="translate(330,30)"/>
<path d="M0 0 C4.95 0 9.9 0 15 0 C15 4.95 15 9.9 15 15 C10.05 15 5.1 15 0 15 C0 10.05 0 5.1 0 0 Z " fill="#EEEEEE" transform="translate(315,30)"/>
<path d="M0 0 C4.95 0 9.9 0 15 0 C15 4.95 15 9.9 15 15 C10.05 15 5.1 15 0 15 C0 10.05 0 5.1 0 0 Z " fill="#FFFFFF" transform="translate(300,30)"/>
<path d="M0 0 C4.95 0 9.9 0 15 0 C15 4.95 15 9.9 15 15 C10.05 15 5.1 15 0 15 C0 10.05 0 5.1 0 0 Z " fill="#EEEEEE" transform="translate(285,30)"/>
<path d="M0 0 C4.95 0 9.9 0 15 0 C15 4.95 15 9.9 15 15 C10.05 15 5.1 15 0 15 C0 10.05 0 5.1 0 0 Z " fill="#FFFFFF" transform="translate(270,30)"/>
<path d="M0 0 C4.95 0 9.9 0 15 0 C15 4.95 15 9.9 15 15 C10.05 15 5.1 15 0 15 C0 10.05 0 5.1 0 0 Z " fill="#EEEEEE" transform="translate(255,30)"/>
<path d="M0 0 C4.95 0 9.9 0 15 0 C15 4.95 15 9.9 15 15 C10.05 15 5.1 15 0 15 C0 10.05 0 5.1 0 0 Z " fill="#EEEEEE" transform="translate(75,30)"/>
<path d="M0 0 C4.95 0 9.9 0 15 0 C15 4.95 15 9.9 15 15 C10.05 15 5.1 15 0 15 C0 10.05 0 5.1 0 0 Z " fill="#FFFFFF" transform="translate(60,30)"/>
<path d="M0 0 C4.95 0 9.9 0 15 0 C15 4.95 15 9.9 15 15 C10.05 15 5.1 15 0 15 C0 10.05 0 5.1 0 0 Z " fill="#EEEEEE" transform="translate(45,30)"/>
<path d="M0 0 C4.95 0 9.9 0 15 0 C15 4.95 15 9.9 15 15 C10.05 15 5.1 15 0 15 C0 10.05 0 5.1 0 0 Z " fill="#FFFFFF" transform="translate(30,30)"/>
<path d="M0 0 C4.95 0 9.9 0 15 0 C15 4.95 15 9.9 15 15 C10.05 15 5.1 15 0 15 C0 10.05 0 5.1 0 0 Z " fill="#EEEEEE" transform="translate(15,30)"/>
<path d="M0 0 C4.95 0 9.9 0 15 0 C15 4.95 15 9.9 15 15 C10.05 15 5.1 15 0 15 C0 10.05 0 5.1 0 0 Z " fill="#FFFFFF" transform="translate(0,30)"/>
<path d="M0 0 C4.95 0 9.9 0 15 0 C15 4.95 15 9.9 15 15 C10.05 15 5.1 15 0 15 C0 10.05 0 5.1 0 0 Z " fill="#EEEEEE" transform="translate(330,15)"/>
<path d="M0 0 C4.95 0 9.9 0 15 0 C15 4.95 15 9.9 15 15 C10.05 15 5.1 15 0 15 C0 10.05 0 5.1 0 0 Z " fill="#FFFFFF" transform="translate(315,15)"/>
<path d="M0 0 C4.95 0 9.9 0 15 0 C15 4.95 15 9.9 15 15 C10.05 15 5.1 15 0 15 C0 10.05 0 5.1 0 0 Z " fill="#EEEEEE" transform="translate(300,15)"/>
<path d="M0 0 C4.95 0 9.9 0 15 0 C15 4.95 15 9.9 15 15 C10.05 15 5.1 15 0 15 C0 10.05 0 5.1 0 0 Z " fill="#FFFFFF" transform="translate(285,15)"/>
<path d="M0 0 C4.95 0 9.9 0 15 0 C15 4.95 15 9.9 15 15 C10.05 15 5.1 15 0 15 C0 10.05 0 5.1 0 0 Z " fill="#EEEEEE" transform="translate(270,15)"/>
<path d="M0 0 C4.95 0 9.9 0 15 0 C15 4.95 15 9.9 15 15 C10.05 15 5.1 15 0 15 C0 10.05 0 5.1 0 0 Z " fill="#FFFFFF" transform="translate(255,15)"/>
<path d="M0 0 C4.95 0 9.9 0 15 0 C15 4.95 15 9.9 15 15 C10.05 15 5.1 15 0 15 C0 10.05 0 5.1 0 0 Z " fill="#EEEEEE" transform="translate(240,15)"/>
<path d="M0 0 C4.95 0 9.9 0 15 0 C15 4.95 15 9.9 15 15 C10.05 15 5.1 15 0 15 C0 10.05 0 5.1 0 0 Z " fill="#FFFFFF" transform="translate(225,15)"/>
<path d="M0 0 C4.95 0 9.9 0 15 0 C15 4.95 15 9.9 15 15 C10.05 15 5.1 15 0 15 C0 10.05 0 5.1 0 0 Z " fill="#FFFFFF" transform="translate(105,15)"/>
<path d="M0 0 C4.95 0 9.9 0 15 0 C15 4.95 15 9.9 15 15 C10.05 15 5.1 15 0 15 C0 10.05 0 5.1 0 0 Z " fill="#EEEEEE" transform="translate(90,15)"/>
<path d="M0 0 C4.95 0 9.9 0 15 0 C15 4.95 15 9.9 15 15 C10.05 15 5.1 15 0 15 C0 10.05 0 5.1 0 0 Z " fill="#FFFFFF" transform="translate(75,15)"/>
<path d="M0 0 C4.95 0 9.9 0 15 0 C15 4.95 15 9.9 15 15 C10.05 15 5.1 15 0 15 C0 10.05 0 5.1 0 0 Z " fill="#EEEEEE" transform="translate(60,15)"/>
<path d="M0 0 C4.95 0 9.9 0 15 0 C15 4.95 15 9.9 15 15 C10.05 15 5.1 15 0 15 C0 10.05 0 5.1 0 0 Z " fill="#FFFFFF" transform="translate(45,15)"/>
<path d="M0 0 C4.95 0 9.9 0 15 0 C15 4.95 15 9.9 15 15 C10.05 15 5.1 15 0 15 C0 10.05 0 5.1 0 0 Z " fill="#EEEEEE" transform="translate(30,15)"/>
<path d="M0 0 C4.95 0 9.9 0 15 0 C15 4.95 15 9.9 15 15 C10.05 15 5.1 15 0 15 C0 10.05 0 5.1 0 0 Z " fill="#FFFFFF" transform="translate(15,15)"/>
<path d="M0 0 C4.95 0 9.9 0 15 0 C15 4.95 15 9.9 15 15 C10.05 15 5.1 15 0 15 C0 10.05 0 5.1 0 0 Z " fill="#EEEEEE" transform="translate(0,15)"/>
<path d="M0 0 C4.95 0 9.9 0 15 0 C15 4.95 15 9.9 15 15 C10.05 15 5.1 15 0 15 C0 10.05 0 5.1 0 0 Z " fill="#EEEEEE" transform="translate(315,0)"/>
<path d="M0 0 C4.95 0 9.9 0 15 0 C15 4.95 15 9.9 15 15 C10.05 15 5.1 15 0 15 C0 10.05 0 5.1 0 0 Z " fill="#FFFFFF" transform="translate(300,0)"/>
<path d="M0 0 C4.95 0 9.9 0 15 0 C15 4.95 15 9.9 15 15 C10.05 15 5.1 15 0 15 C0 10.05 0 5.1 0 0 Z " fill="#EEEEEE" transform="translate(285,0)"/>
<path d="M0 0 C4.95 0 9.9 0 15 0 C15 4.95 15 9.9 15 15 C10.05 15 5.1 15 0 15 C0 10.05 0 5.1 0 0 Z " fill="#FFFFFF" transform="translate(270,0)"/>
<path d="M0 0 C4.95 0 9.9 0 15 0 C15 4.95 15 9.9 15 15 C10.05 15 5.1 15 0 15 C0 10.05 0 5.1 0 0 Z " fill="#EEEEEE" transform="translate(255,0)"/>
<path d="M0 0 C4.95 0 9.9 0 15 0 C15 4.95 15 9.9 15 15 C10.05 15 5.1 15 0 15 C0 10.05 0 5.1 0 0 Z " fill="#FFFFFF" transform="translate(240,0)"/>
<path d="M0 0 C4.95 0 9.9 0 15 0 C15 4.95 15 9.9 15 15 C10.05 15 5.1 15 0 15 C0 10.05 0 5.1 0 0 Z " fill="#EEEEEE" transform="translate(225,0)"/>
<path d="M0 0 C4.95 0 9.9 0 15 0 C15 4.95 15 9.9 15 15 C10.05 15 5.1 15 0 15 C0 10.05 0 5.1 0 0 Z " fill="#FFFFFF" transform="translate(210,0)"/>
<path d="M0 0 C4.95 0 9.9 0 15 0 C15 4.95 15 9.9 15 15 C10.05 15 5.1 15 0 15 C0 10.05 0 5.1 0 0 Z " fill="#EEEEEE" transform="translate(195,0)"/>
<path d="M0 0 C4.95 0 9.9 0 15 0 C15 4.95 15 9.9 15 15 C10.05 15 5.1 15 0 15 C0 10.05 0 5.1 0 0 Z " fill="#FFFFFF" transform="translate(180,0)"/>
<path d="M0 0 C4.95 0 9.9 0 15 0 C15 4.95 15 9.9 15 15 C10.05 15 5.1 15 0 15 C0 10.05 0 5.1 0 0 Z " fill="#FFFFFF" transform="translate(150,0)"/>
<path d="M0 0 C4.95 0 9.9 0 15 0 C15 4.95 15 9.9 15 15 C10.05 15 5.1 15 0 15 C0 10.05 0 5.1 0 0 Z " fill="#EEEEEE" transform="translate(135,0)"/>
<path d="M0 0 C4.95 0 9.9 0 15 0 C15 4.95 15 9.9 15 15 C10.05 15 5.1 15 0 15 C0 10.05 0 5.1 0 0 Z " fill="#FFFFFF" transform="translate(120,0)"/>
<path d="M0 0 C4.95 0 9.9 0 15 0 C15 4.95 15 9.9 15 15 C10.05 15 5.1 15 0 15 C0 10.05 0 5.1 0 0 Z " fill="#EEEEEE" transform="translate(105,0)"/>
<path d="M0 0 C4.95 0 9.9 0 15 0 C15 4.95 15 9.9 15 15 C10.05 15 5.1 15 0 15 C0 10.05 0 5.1 0 0 Z " fill="#FFFFFF" transform="translate(90,0)"/>
<path d="M0 0 C4.95 0 9.9 0 15 0 C15 4.95 15 9.9 15 15 C10.05 15 5.1 15 0 15 C0 10.05 0 5.1 0 0 Z " fill="#EEEEEE" transform="translate(75,0)"/>
<path d="M0 0 C4.95 0 9.9 0 15 0 C15 4.95 15 9.9 15 15 C10.05 15 5.1 15 0 15 C0 10.05 0 5.1 0 0 Z " fill="#FFFFFF" transform="translate(60,0)"/>
<path d="M0 0 C4.95 0 9.9 0 15 0 C15 4.95 15 9.9 15 15 C10.05 15 5.1 15 0 15 C0 10.05 0 5.1 0 0 Z " fill="#EEEEEE" transform="translate(45,0)"/>
<path d="M0 0 C4.95 0 9.9 0 15 0 C15 4.95 15 9.9 15 15 C10.05 15 5.1 15 0 15 C0 10.05 0 5.1 0 0 Z " fill="#FFFFFF" transform="translate(30,0)"/>
<path d="M0 0 C4.95 0 9.9 0 15 0 C15 4.95 15 9.9 15 15 C10.05 15 5.1 15 0 15 C0 10.05 0 5.1 0 0 Z " fill="#FFFFFF" transform="translate(0,0)"/>
<path d="M0 0 C0 2.31 0 4.62 0 7 C-4.95 7 -9.9 7 -15 7 C-15 11.95 -15 16.9 -15 22 C-19.95 22 -24.9 22 -30 22 C-24.50862104 11.01724207 -13.02420101 0 0 0 Z " fill="#FEFEFE" transform="translate(150,203)"/>
<path d="M0 0 C4.29 0.33 8.58 0.66 13 1 C13 5.95 13 10.9 13 16 C8.38 16 3.76 16 -1 16 C-0.67 10.72 -0.34 5.44 0 0 Z " fill="#EEEEEE" transform="translate(317,179)"/>
<path d="M0 0 C-0.33 4.95 -0.66 9.9 -1 15 C-5.95 15 -10.9 15 -16 15 C-16.33 11.37 -16.66 7.74 -17 4 C-14.54453034 3.13670227 -12.08621957 2.28410564 -9.625 1.4375 C-8.57699219 1.0672168 -8.57699219 1.0672168 -7.5078125 0.68945312 C-2.2265625 -1.11328125 -2.2265625 -1.11328125 0 0 Z " fill="#EEEEEE" transform="translate(226,315)"/>
<path d="M0 0 C0.33 0 0.66 0 1 0 C0.98839844 1.07636719 0.97679687 2.15273437 0.96484375 3.26171875 C0.89876552 12.24939075 1.17634313 21.04273151 2 30 C-2.29 30 -6.58 30 -11 30 C-11 25.05 -11 20.1 -11 15 C-7.37 15 -3.74 15 0 15 C0 10.05 0 5.1 0 0 Z " fill="#EEEEEE" transform="translate(26,165)"/>
<path d="M0 0 C0.33 0 0.66 0 1 0 C1.02707139 2.24993359 1.04642829 4.49996095 1.0625 6.75 C1.07410156 8.00296875 1.08570313 9.2559375 1.09765625 10.546875 C1 14 1 14 0 18 C-3.96 18 -7.92 18 -12 18 C-12.33 13.05 -12.66 8.1 -13 3 C-8.71 3 -4.42 3 0 3 C0 2.01 0 1.02 0 0 Z " fill="#EEEEEE" transform="translate(224,222)"/>
<path d="M0 0 C3.63 0 7.26 0 11 0 C13.46046796 5.8436114 14 8.23855095 14 15 C9.38 15 4.76 15 0 15 C0 10.05 0 5.1 0 0 Z " fill="#FEFEFE" transform="translate(210,210)"/>
<path d="M0 0 C3.09244792 0.03255208 6.18489583 0.06510417 9.27734375 0.09765625 C9.27734375 5.04765625 9.27734375 9.99765625 9.27734375 15.09765625 C0 15.1953125 0 15.1953125 -2.72265625 15.09765625 C-3.72265625 14.09765625 -3.72265625 14.09765625 -3.85546875 11.19140625 C-3.85289062 10.00546875 -3.8503125 8.81953125 -3.84765625 7.59765625 C-3.85023438 6.41171875 -3.8528125 5.22578125 -3.85546875 4.00390625 C-3.67852412 0.13194132 -3.67852412 0.13194132 0 0 Z " fill="#FEFEFE" transform="translate(320.72265625,164.90234375)"/>
<path d="M0 0 C10.5 2.75 10.5 2.75 15 5 C15 8.3 15 11.6 15 15 C10.05 15 5.1 15 0 15 C0 10.05 0 5.1 0 0 Z " fill="#EEEEEE" transform="translate(120,315)"/>
<path d="M0 0 C1.7492214 -0.08142927 3.49954542 -0.13938541 5.25 -0.1875 C6.22453125 -0.22230469 7.1990625 -0.25710937 8.203125 -0.29296875 C11.49771319 0.05213476 12.80428474 0.51428461 15 3 C15.390625 5.91796875 15.390625 5.91796875 15.25 9.1875 C15.21390625 10.27417969 15.1778125 11.36085938 15.140625 12.48046875 C15.07101563 13.72763672 15.07101563 13.72763672 15 15 C9.55432314 13.97137215 4.88182883 12.75385216 0 10 C0 6.7 0 3.4 0 0 Z " fill="#FEFEFE" transform="translate(135,255)"/>
<path d="M0 0 C4.62 0 9.24 0 14 0 C14 4.95 14 9.9 14 15 C10.37 15.33 6.74 15.66 3 16 C2.51171875 13.29817708 2.0234375 10.59635417 1.53515625 7.89453125 C1.04777524 5.25840475 0.52574867 2.62874333 0 0 Z " fill="#EEEEEE" transform="translate(196,120)"/>
<path d="M0 0 C8.49609375 -0.09765625 8.49609375 -0.09765625 11 0 C12 1 12 1 12.09765625 4.16015625 C12.08605469 5.44792969 12.07445312 6.73570312 12.0625 8.0625 C12.05347656 9.35285156 12.04445312 10.64320313 12.03515625 11.97265625 C12.02355469 12.97167969 12.01195312 13.97070312 12 15 C8.04 15 4.08 15 0 15 C0 10.05 0 5.1 0 0 Z " fill="#EEEEEE" transform="translate(240,135)"/>
<path d="M0 0 C-0.21462891 0.84691406 -0.21462891 0.84691406 -0.43359375 1.7109375 C-1.00258998 4.01046711 -1.54084995 6.31428349 -2.0625 8.625 C-2.23910156 9.40101563 -2.41570312 10.17703125 -2.59765625 10.9765625 C-3.06500788 12.983091 -3.06500788 12.983091 -3 15 C-6.96 15 -10.92 15 -15 15 C-15.43574879 7.59227053 -15.43574879 7.59227053 -15 4 C-12.6875 1.9375 -12.6875 1.9375 -10 1 C-6.1496895 -1.56687367 -4.41430237 -0.83288724 0 0 Z " fill="#EEEEEE" transform="translate(195,165)"/>
<path d="M0 0 C3.63 0 7.26 0 11 0 C11.33 4.95 11.66 9.9 12 15 C8.04 15 4.08 15 0 15 C0 10.05 0 5.1 0 0 Z " fill="#EEEEEE" transform="translate(135,120)"/>
<path d="M0 0 C3.63 0 7.26 0 11 0 C11.33 4.95 11.66 9.9 12 15 C8.04 15 4.08 15 0 15 C0 10.05 0 5.1 0 0 Z " fill="#FEFEFE" transform="translate(240,120)"/>
<path d="M0 0 C4.95 0 9.9 0 15 0 C15 4.62 15 9.24 15 14 C10.05 12.35 5.1 10.7 0 9 C0 6.03 0 3.06 0 0 Z " fill="#EEEEEE" transform="translate(180,195)"/>
<path d="M0 0 C3.63 0 7.26 0 11 0 C11 4.95 11 9.9 11 15 C7.37 15 3.74 15 0 15 C0 10.05 0 5.1 0 0 Z " fill="#FFFFFF" transform="translate(15,165)"/>
<path d="M0 0 C1.65 0.33 3.3 0.66 5 1 C5.50961846 2.39235043 6.00724909 3.78909118 6.5 5.1875 C6.7784375 5.96480469 7.056875 6.74210937 7.34375 7.54296875 C8 10 8 10 8 15 C4.37 15 0.74 15 -3 15 C-3 19.62 -3 24.24 -3 29 C-3.66 28.67 -4.32 28.34 -5 28 C-5.73324757 17.27829113 -4.16930006 9.79785513 0 0 Z " fill="#FCFCFC" transform="translate(243,90)"/>
<path d="M0 0 C2.27864583 0.06510417 4.55729167 0.13020833 6.8359375 0.1953125 C6.8359375 5.1453125 6.8359375 10.0953125 6.8359375 15.1953125 C3.2059375 15.1953125 -0.4240625 15.1953125 -4.1640625 15.1953125 C-4.21792879 13.07058674 -4.25679321 10.94547598 -4.2890625 8.8203125 C-4.31226563 7.63695312 -4.33546875 6.45359375 -4.359375 5.234375 C-4.13259638 1.70569963 -3.68905306 0.33294703 0 0 Z " fill="#FEFEFE" transform="translate(203.1640625,134.8046875)"/>
<path d="M0 0 C4.95 0 9.9 0 15 0 C15 3.3 15 6.6 15 10 C10.32798795 11.20568053 5.78503708 11.09382426 1 11 C-0.71466036 7.57067929 -0.05404056 3.78283935 0 0 Z " fill="#EEEEEE" transform="translate(105,120)"/>
<path d="M0 0 C0 2.31 0 4.62 0 7 C-5.61025343 9.30749407 -10.66668752 10.62585858 -16.6875 11.25 C-17.78674805 11.38535156 -17.78674805 11.38535156 -18.90820312 11.5234375 C-22.82615912 11.96151373 -26.18596265 12.05318586 -30 11 C-30 10.34 -30 9.68 -30 9 C-25.05 9 -20.1 9 -15 9 C-15 7.35 -15 5.7 -15 4 C-15.66 3.67 -16.32 3.34 -17 3 C-15.75283203 2.80083984 -15.75283203 2.80083984 -14.48046875 2.59765625 C-13.39378906 2.42105469 -12.30710938 2.24445313 -11.1875 2.0625 C-10.10855469 1.88847656 -9.02960938 1.71445312 -7.91796875 1.53515625 C-5.19668293 1.0360717 -2.75778676 0 0 0 Z " fill="#EFEFEF" transform="translate(195,261)"/>
<path d="M0 0 C1.65 0 3.3 0 5 0 C6.88076097 2.12295754 8.31319373 4.0100377 9.8125 6.375 C10.21919922 6.97828125 10.62589844 7.5815625 11.04492188 8.203125 C14 12.67299107 14 12.67299107 14 15 C9.38 15 4.76 15 0 15 C0 10.05 0 5.1 0 0 Z " fill="#FEFEFE" transform="translate(45,255)"/>
<path d="M0 0 C4.29 0 8.58 0 13 0 C13 4.95 13 9.9 13 15 C10.69 15 8.38 15 6 15 C4.02 10.05 2.04 5.1 0 0 Z " fill="#EEEEEE" transform="translate(302,105)"/>
<path d="M0 0 C4.95 0 9.9 0 15 0 C15 3.63 15 7.26 15 11 C13.06201479 10.69052329 11.12462574 10.37731166 9.1875 10.0625 C8.10855469 9.88847656 7.02960938 9.71445312 5.91796875 9.53515625 C3 9 3 9 0 8 C0 5.36 0 2.72 0 0 Z " fill="#FEFEFE" transform="translate(195,15)"/>
<path d="M0 0 C5.13503344 0.64187918 9.9943454 1.68272247 15 3 C14.67 6.96 14.34 10.92 14 15 C11.69 15 9.38 15 7 15 C6.875 9.25 6.875 9.25 8 7 C5.03 7 2.06 7 -1 7 C-1.33 6.34 -1.66 5.68 -2 5 C-1.0625 2.375 -1.0625 2.375 0 0 Z " fill="#FDFDFD" transform="translate(166,165)"/>
<path d="M0 0 C2.31 0 4.62 0 7 0 C7 4.95 7 9.9 7 15 C3.04 15 -0.92 15 -5 15 C-3.33333333 10 -1.66666667 5 0 0 Z " fill="#EEEEEE" transform="translate(308,225)"/>
<path d="M0 0 C4.95 0 9.9 0 15 0 C15 2.64 15 5.28 15 8 C9.92523206 9.26305335 5.27203646 10.27036084 0 10 C0 6.7 0 3.4 0 0 Z " fill="#FEFEFE" transform="translate(135,15)"/>
<path d="M0 0 C4.95 0 9.9 0 15 0 C14.05125 0.99 13.1025 1.98 12.125 3 C8.79126585 6.84480189 7.87140004 10.03301976 7 15 C5.68 15 4.36 15 3 15 C2.67 15.66 2.34 16.32 2 17 C2 15.35 2 13.7 2 12 C1.34 12 0.68 12 0 12 C0 8.04 0 4.08 0 0 Z " fill="#EEEEEE" transform="translate(240,75)"/>
<path d="M0 0 C0 3.3 0 6.6 0 10 C-4.95 10 -9.9 10 -15 10 C-15 7.69 -15 5.38 -15 3 C-9.8589823 1.20662173 -5.45981377 0 0 0 Z " fill="#FEFEFE" transform="translate(210,320)"/>
<path d="M0 0 C2.12560437 0.30836232 4.25047065 0.62181614 6.375 0.9375 C8.15003906 1.19853516 8.15003906 1.19853516 9.9609375 1.46484375 C13 2 13 2 15 3 C15 5.31 15 7.62 15 10 C10.05 10 5.1 10 0 10 C0 6.7 0 3.4 0 0 Z " fill="#FEFEFE" transform="translate(135,320)"/>
<path d="M0 0 C4.95 0 9.9 0 15 0 C15 3.63 15 7.26 15 11 C13.06213915 10.52229477 11.12472326 10.04278429 9.1875 9.5625 C8.10855469 9.29566406 7.02960938 9.02882813 5.91796875 8.75390625 C3.9259157 8.23922588 1.95188476 7.65062825 0 7 C0 4.69 0 2.38 0 0 Z " fill="#EEEEEE" transform="translate(165,90)"/>
<path d="M0 0 C3.63 0 7.26 0 11 0 C9.33333333 5 7.66666667 10 6 15 C4.02 15 2.04 15 0 15 C0 10.05 0 5.1 0 0 Z " fill="#EEEEEE" transform="translate(30,105)"/>
<path d="M0 0 C1.65 0 3.3 0 5 0 C6.00460531 2.12282669 7.00355602 4.24833021 8 6.375 C8.556875 7.55835938 9.11375 8.74171875 9.6875 9.9609375 C11 13 11 13 11 15 C7.37 15 3.74 15 0 15 C0 10.05 0 5.1 0 0 Z " fill="#EEEEEE" transform="translate(30,225)"/>
<path d="M0 0 C4.62 0 9.24 0 14 0 C12.00396156 2.33682549 10.0036279 4.66969364 8 7 C7.04867187 8.11181641 7.04867187 8.11181641 6.078125 9.24609375 C5.45421875 9.96925781 4.8303125 10.69242188 4.1875 11.4375 C3.60355469 12.11683594 3.01960938 12.79617187 2.41796875 13.49609375 C1.95003906 13.99238281 1.48210938 14.48867187 1 15 C0.67 15 0.34 15 0 15 C0 10.05 0 5.1 0 0 Z " fill="#FEFEFE" transform="translate(60,60)"/>
<path d="M0 0 C4.82985313 3.96047957 9.23275035 7.99079991 13 13 C13 13.33 13 13.66 13 14 C8.71 14 4.42 14 0 14 C0 9.38 0 4.76 0 0 Z " fill="#FEFEFE" transform="translate(60,271)"/>
<path d="M0 0 C0.99 0 1.98 0 3 0 C3 5.94 3 11.88 3 18 C-2.94 18 -8.88 18 -15 18 C-15 17.01 -15 16.02 -15 15 C-10.05 15 -5.1 15 0 15 C0 10.05 0 5.1 0 0 Z " fill="#EFEFEF" transform="translate(345,330)"/>
<path d="M0 0 C3.96 0 7.92 0 12 0 C11.25 6.75 11.25 6.75 9 9 C6.28545044 9.32752234 3.74769241 9.1308425 1 9 C0 8 0 8 -0.09765625 6.15234375 C-0.06510417 4.1015625 -0.03255208 2.05078125 0 0 Z " fill="#EEEEEE" transform="translate(240,165)"/>
<path d="M0 0 C0 1.32 0 2.64 0 4 C0.66 4.33 1.32 4.66 2 5 C0.10454608 5.48066535 -1.79138039 5.95946743 -3.6875 6.4375 C-5.27111328 6.83775391 -5.27111328 6.83775391 -6.88671875 7.24609375 C-9.5828317 7.89897932 -12.2757576 8.47941193 -15 9 C-15.33 6.69 -15.66 4.38 -16 2 C-10.42932723 0.40837921 -5.78898419 -0.20674944 0 0 Z " fill="#EEEEEE" transform="translate(165,200)"/>
<path d="M0 0 C0 2.31 0 4.62 0 7 C-4.95 7 -9.9 7 -15 7 C-15 2 -15 2 -14 1 C-12.40220971 0.76426045 -10.79576005 0.5858461 -9.1875 0.4375 C-8.31480469 0.35371094 -7.44210938 0.26992188 -6.54296875 0.18359375 C-4.36678488 0.02648063 -2.18184801 0 0 0 Z " fill="#EEEEEE" transform="translate(195,323)"/>
<path d="M0 0 C4.95 0 9.9 0 15 0 C15 1.98 15 3.96 15 6 C10.05 6 5.1 6 0 6 C0 4.02 0 2.04 0 0 Z " fill="#FFFFFF" transform="translate(165,15)"/>
<path d="M0 0 C4.95 0 9.9 0 15 0 C15 1.98 15 3.96 15 6 C10.05 6 5.1 6 0 6 C0 4.02 0 2.04 0 0 Z " fill="#FCFCFC" transform="translate(165,324)"/>
<path d="M0 0 C1.93742341 -0.02703381 3.87495479 -0.04641125 5.8125 -0.0625 C6.89144531 -0.07410156 7.97039062 -0.08570313 9.08203125 -0.09765625 C12 0 12 0 15 1 C15 2.65 15 4.3 15 6 C10.05 6 5.1 6 0 6 C0 4.02 0 2.04 0 0 Z " fill="#FDFDFD" transform="translate(165,264)"/>
<path d="M0 0 C0.99 0 1.98 0 3 0 C3 2.97 3 5.94 3 9 C-1.95 9 -6.9 9 -12 9 C-12 7.35 -12 5.7 -12 4 C-7.71 4 -3.42 4 1 4 C0.67 2.68 0.34 1.36 0 0 Z " fill="#FEFEFE" transform="translate(177,195)"/>
<path d="M0 0 C0.66 0 1.32 0 2 0 C2 12.21 2 24.42 2 37 C-0.91472196 34.08527804 -0.465191 30.91866737 -0.625 27 C-0.66222168 26.23051025 -0.69944336 25.46102051 -0.73779297 24.66821289 C-1.11891234 16.32134739 -1.22700983 8.28231638 0 0 Z " fill="#F2F2F2" transform="translate(238,135)"/>
<path d="M0 0 C3.96 0 7.92 0 12 0 C12 4.29 12 8.58 12 13 C10.68 11.35 9.36 9.7 8 8 C6.61445508 6.71558974 5.19875607 5.46266249 3.75 4.25 C2.48306842 3.18651729 1.22771765 2.10852176 0 1 C0 0.67 0 0.34 0 0 Z " fill="#EEEEEE" transform="translate(198,210)"/>
<path d="M0 0 C3.96 0 7.92 0 12 0 C12 2.97 12 5.94 12 9 C7.09198451 7.51272258 3.59508707 4.55364515 0 1 C0 0.67 0 0.34 0 0 Z " fill="#EEEEEE" transform="translate(123,255)"/>
<path d="M0 0 C7.57142857 6.14285714 7.57142857 6.14285714 10 11 C6.7 11 3.4 11 0 11 C0 7.37 0 3.74 0 0 Z " fill="#EFEFEF" transform="translate(210,199)"/>
<path d="M0 0 C2.97 0 5.94 0 9 0 C9 4.29 9 8.58 9 13 C7.68 11.35 6.36 9.7 5 8 C4.08636403 6.9348928 3.17023728 5.87190897 2.25 4.8125 C0 2 0 2 0 0 Z " fill="#EEEEEE" transform="translate(186,105)"/>
<path d="M0 0 C0 2.64 0 5.28 0 8 C-4.29 8 -8.58 8 -13 8 C-13 7.34 -13 6.68 -13 6 C-11.02204824 4.99759911 -9.04260558 3.99813957 -7.0625 3 C-5.96035156 2.443125 -4.85820312 1.88625 -3.72265625 1.3125 C-1 0 -1 0 0 0 Z " fill="#EEEEEE" transform="translate(240,307)"/>
<path d="M0 0 C2.31 0 4.62 0 7 0 C6.319375 0.825 5.63875 1.65 4.9375 2.5 C3.02921969 5.29881112 2.80367907 7.03056853 3.25 10.375 C3.4975 11.57125 3.745 12.7675 4 14 C2.68 14.33 1.36 14.66 0 15 C0 10.05 0 5.1 0 0 Z " fill="#EEEEEE" transform="translate(210,105)"/>
<path d="M0 0 C0.66 0 1.32 0 2 0 C3.47265625 1.8984375 3.47265625 1.8984375 5.0625 4.375 C5.85333984 5.59316406 5.85333984 5.59316406 6.66015625 6.8359375 C8 9 8 9 9 11 C6.03 11 3.06 11 0 11 C0 7.37 0 3.74 0 0 Z " fill="#EEEEEE" transform="translate(135,244)"/>
<path d="M0 0 C5.94 2.475 5.94 2.475 12 5 C12 5.66 12 6.32 12 7 C8.04 7 4.08 7 0 7 C0 4.69 0 2.38 0 0 Z " fill="#EFEFEF" transform="translate(105,308)"/>
<path d="M0 0 C3.3 0 6.6 0 10 0 C6.83047153 3.26008643 3.60062011 6.22237877 0 9 C0 6.03 0 3.06 0 0 Z " fill="#EEEEEE" transform="translate(225,90)"/>
<path d="M0 0 C4.95 0 9.9 0 15 0 C15 0.99 15 1.98 15 3 C10.05 3 5.1 3 0 3 C0 2.01 0 1.02 0 0 Z " fill="#FFFFFF" transform="translate(315,345)"/>
<path d="M0 0 C4.95 0 9.9 0 15 0 C15 0.99 15 1.98 15 3 C10.05 3 5.1 3 0 3 C0 2.01 0 1.02 0 0 Z " fill="#EEEEEE" transform="translate(300,345)"/>
<path d="M0 0 C4.95 0 9.9 0 15 0 C15 0.99 15 1.98 15 3 C10.05 3 5.1 3 0 3 C0 2.01 0 1.02 0 0 Z " fill="#FFFFFF" transform="translate(285,345)"/>
<path d="M0 0 C4.95 0 9.9 0 15 0 C15 0.99 15 1.98 15 3 C10.05 3 5.1 3 0 3 C0 2.01 0 1.02 0 0 Z " fill="#EEEEEE" transform="translate(270,345)"/>
<path d="M0 0 C4.95 0 9.9 0 15 0 C15 0.99 15 1.98 15 3 C10.05 3 5.1 3 0 3 C0 2.01 0 1.02 0 0 Z " fill="#FFFFFF" transform="translate(255,345)"/>
<path d="M0 0 C4.95 0 9.9 0 15 0 C15 0.99 15 1.98 15 3 C10.05 3 5.1 3 0 3 C0 2.01 0 1.02 0 0 Z " fill="#EEEEEE" transform="translate(240,345)"/>
<path d="M0 0 C4.95 0 9.9 0 15 0 C15 0.99 15 1.98 15 3 C10.05 3 5.1 3 0 3 C0 2.01 0 1.02 0 0 Z " fill="#FFFFFF" transform="translate(225,345)"/>
<path d="M0 0 C4.95 0 9.9 0 15 0 C15 0.99 15 1.98 15 3 C10.05 3 5.1 3 0 3 C0 2.01 0 1.02 0 0 Z " fill="#EEEEEE" transform="translate(210,345)"/>
<path d="M0 0 C4.95 0 9.9 0 15 0 C15 0.99 15 1.98 15 3 C10.05 3 5.1 3 0 3 C0 2.01 0 1.02 0 0 Z " fill="#FFFFFF" transform="translate(195,345)"/>
<path d="M0 0 C4.95 0 9.9 0 15 0 C15 0.99 15 1.98 15 3 C10.05 3 5.1 3 0 3 C0 2.01 0 1.02 0 0 Z " fill="#EEEEEE" transform="translate(180,345)"/>
<path d="M0 0 C4.95 0 9.9 0 15 0 C15 0.99 15 1.98 15 3 C10.05 3 5.1 3 0 3 C0 2.01 0 1.02 0 0 Z " fill="#FFFFFF" transform="translate(165,345)"/>
<path d="M0 0 C4.95 0 9.9 0 15 0 C15 0.99 15 1.98 15 3 C10.05 3 5.1 3 0 3 C0 2.01 0 1.02 0 0 Z " fill="#EEEEEE" transform="translate(150,345)"/>
<path d="M0 0 C4.95 0 9.9 0 15 0 C15 0.99 15 1.98 15 3 C10.05 3 5.1 3 0 3 C0 2.01 0 1.02 0 0 Z " fill="#FFFFFF" transform="translate(135,345)"/>
<path d="M0 0 C4.95 0 9.9 0 15 0 C15 0.99 15 1.98 15 3 C10.05 3 5.1 3 0 3 C0 2.01 0 1.02 0 0 Z " fill="#EEEEEE" transform="translate(120,345)"/>
<path d="M0 0 C4.95 0 9.9 0 15 0 C15 0.99 15 1.98 15 3 C10.05 3 5.1 3 0 3 C0 2.01 0 1.02 0 0 Z " fill="#FFFFFF" transform="translate(105,345)"/>
<path d="M0 0 C4.95 0 9.9 0 15 0 C15 0.99 15 1.98 15 3 C10.05 3 5.1 3 0 3 C0 2.01 0 1.02 0 0 Z " fill="#EEEEEE" transform="translate(90,345)"/>
<path d="M0 0 C4.95 0 9.9 0 15 0 C15 0.99 15 1.98 15 3 C10.05 3 5.1 3 0 3 C0 2.01 0 1.02 0 0 Z " fill="#FFFFFF" transform="translate(75,345)"/>
<path d="M0 0 C4.95 0 9.9 0 15 0 C15 0.99 15 1.98 15 3 C10.05 3 5.1 3 0 3 C0 2.01 0 1.02 0 0 Z " fill="#EEEEEE" transform="translate(60,345)"/>
<path d="M0 0 C4.95 0 9.9 0 15 0 C15 0.99 15 1.98 15 3 C10.05 3 5.1 3 0 3 C0 2.01 0 1.02 0 0 Z " fill="#EEEEEE" transform="translate(30,345)"/>
<path d="M0 0 C4.95 0 9.9 0 15 0 C15 0.99 15 1.98 15 3 C10.05 3 5.1 3 0 3 C0 2.01 0 1.02 0 0 Z " fill="#EEEEEE" transform="translate(0,345)"/>
<path d="M0 0 C0.99 0 1.98 0 3 0 C3 4.95 3 9.9 3 15 C2.01 15 1.02 15 0 15 C0 10.05 0 5.1 0 0 Z " fill="#FFFFFF" transform="translate(345,315)"/>
<path d="M0 0 C0.99 0 1.98 0 3 0 C3 4.95 3 9.9 3 15 C2.01 15 1.02 15 0 15 C0 10.05 0 5.1 0 0 Z " fill="#EEEEEE" transform="translate(345,300)"/>
<path d="M0 0 C0.99 0 1.98 0 3 0 C3 4.95 3 9.9 3 15 C2.01 15 1.02 15 0 15 C0 10.05 0 5.1 0 0 Z " fill="#FFFFFF" transform="translate(345,285)"/>
<path d="M0 0 C0.99 0 1.98 0 3 0 C3 4.95 3 9.9 3 15 C2.01 15 1.02 15 0 15 C0 10.05 0 5.1 0 0 Z " fill="#EEEEEE" transform="translate(345,270)"/>
<path d="M0 0 C0.99 0 1.98 0 3 0 C3 4.95 3 9.9 3 15 C2.01 15 1.02 15 0 15 C0 10.05 0 5.1 0 0 Z " fill="#FFFFFF" transform="translate(345,255)"/>
<path d="M0 0 C0.99 0 1.98 0 3 0 C3 4.95 3 9.9 3 15 C2.01 15 1.02 15 0 15 C0 10.05 0 5.1 0 0 Z " fill="#EEEEEE" transform="translate(345,240)"/>
<path d="M0 0 C0.99 0 1.98 0 3 0 C3 4.95 3 9.9 3 15 C2.01 15 1.02 15 0 15 C0 10.05 0 5.1 0 0 Z " fill="#FFFFFF" transform="translate(345,225)"/>
<path d="M0 0 C0.99 0 1.98 0 3 0 C3 4.95 3 9.9 3 15 C2.01 15 1.02 15 0 15 C0 10.05 0 5.1 0 0 Z " fill="#EEEEEE" transform="translate(345,210)"/>
<path d="M0 0 C0.99 0 1.98 0 3 0 C3 4.95 3 9.9 3 15 C2.01 15 1.02 15 0 15 C0 10.05 0 5.1 0 0 Z " fill="#FFFFFF" transform="translate(345,195)"/>
<path d="M0 0 C0.99 0 1.98 0 3 0 C3 4.95 3 9.9 3 15 C2.01 15 1.02 15 0 15 C0 10.05 0 5.1 0 0 Z " fill="#EEEEEE" transform="translate(345,180)"/>
<path d="M0 0 C0.99 0 1.98 0 3 0 C3 4.95 3 9.9 3 15 C2.01 15 1.02 15 0 15 C0 10.05 0 5.1 0 0 Z " fill="#FFFFFF" transform="translate(345,165)"/>
<path d="M0 0 C0.99 0 1.98 0 3 0 C3 4.95 3 9.9 3 15 C2.01 15 1.02 15 0 15 C0 10.05 0 5.1 0 0 Z " fill="#EEEEEE" transform="translate(345,150)"/>
<path d="M0 0 C0.99 0 1.98 0 3 0 C3 4.95 3 9.9 3 15 C2.01 15 1.02 15 0 15 C0 10.05 0 5.1 0 0 Z " fill="#FFFFFF" transform="translate(345,135)"/>
<path d="M0 0 C0.99 0 1.98 0 3 0 C3 4.95 3 9.9 3 15 C2.01 15 1.02 15 0 15 C0 10.05 0 5.1 0 0 Z " fill="#EEEEEE" transform="translate(345,120)"/>
<path d="M0 0 C0.99 0 1.98 0 3 0 C3 4.95 3 9.9 3 15 C2.01 15 1.02 15 0 15 C0 10.05 0 5.1 0 0 Z " fill="#FFFFFF" transform="translate(345,105)"/>
<path d="M0 0 C0.99 0 1.98 0 3 0 C3 4.95 3 9.9 3 15 C2.01 15 1.02 15 0 15 C0 10.05 0 5.1 0 0 Z " fill="#EEEEEE" transform="translate(345,90)"/>
<path d="M0 0 C0.99 0 1.98 0 3 0 C3 4.95 3 9.9 3 15 C2.01 15 1.02 15 0 15 C0 10.05 0 5.1 0 0 Z " fill="#FFFFFF" transform="translate(345,75)"/>
<path d="M0 0 C0.99 0 1.98 0 3 0 C3 4.95 3 9.9 3 15 C2.01 15 1.02 15 0 15 C0 10.05 0 5.1 0 0 Z " fill="#EEEEEE" transform="translate(345,60)"/>
<path d="M0 0 C0.99 0 1.98 0 3 0 C3 4.95 3 9.9 3 15 C2.01 15 1.02 15 0 15 C0 10.05 0 5.1 0 0 Z " fill="#EEEEEE" transform="translate(345,30)"/>
<path d="M0 0 C0.99 0 1.98 0 3 0 C3 4.95 3 9.9 3 15 C2.01 15 1.02 15 0 15 C0 10.05 0 5.1 0 0 Z " fill="#EEEEEE" transform="translate(345,0)"/>
<path d="M0 0 C1.31611677 0.95336021 2.62778961 1.91285774 3.9375 2.875 C4.66839844 3.40867188 5.39929688 3.94234375 6.15234375 4.4921875 C8 6 8 6 9 8 C6.03 8 3.06 8 0 8 C0 5.36 0 2.72 0 0 Z " fill="#EEEEEE" transform="translate(195,187)"/>
<path d="M0 0 C0.66 0 1.32 0 2 0 C2 4.95 2 9.9 2 15 C1.01 15 0.02 15 -1 15 C-0.67 10.05 -0.34 5.1 0 0 Z " fill="#FCFCFC" transform="translate(238,135)"/>
<path d="M0 0 C1.98 0 3.96 0 6 0 C6 3.3 6 6.6 6 10 C3.51275097 6.68366796 1.76890085 3.70626844 0 0 Z " fill="#EEEEEE" transform="translate(294,90)"/>
<path d="M0 0 C0.33 0 0.66 0 1 0 C1 1.65 1 3.3 1 5 C1.99 5 2.98 5 4 5 C4 8.3 4 11.6 4 15 C0.96582331 10.95443108 0.59473757 9.99159125 0.3125 5.25 C0.24675781 4.26515625 0.18101563 3.2803125 0.11328125 2.265625 C0.07589844 1.51796875 0.03851563 0.7703125 0 0 Z " fill="#EEEEEE" transform="translate(116,235)"/>
<path d="M0 0 C0.33 0 0.66 0 1 0 C1 2.97 1 5.94 1 9 C-0.65 9 -2.3 9 -4 9 C-2.80100302 5.9168649 -1.52299523 2.93720508 0 0 Z " fill="#EEEEEE" transform="translate(299,246)"/>
<path d="M0 0 C4.29 0 8.58 0 13 0 C13 0.99 13 1.98 13 3 C8.71 2.34 4.42 1.68 0 1 C0 0.67 0 0.34 0 0 Z " fill="#FBFBFB" transform="translate(152,270)"/>
<path d="M0 0 C0.33 0 0.66 0 1 0 C1 2.31 1 4.62 1 7 C-0.98 7 -2.96 7 -5 7 C-4.19152271 5.83054208 -3.37810888 4.66449539 -2.5625 3.5 C-2.11003906 2.8503125 -1.65757812 2.200625 -1.19140625 1.53125 C-0.79824219 1.0259375 -0.40507812 0.520625 0 0 Z " fill="#FDFDFD" transform="translate(194,158)"/>
<path d="M0 0 C0.33 0 0.66 0 1 0 C1 2.31 1 4.62 1 7 C-0.98 7 -2.96 7 -5 7 C-4.34 6.67 -3.68 6.34 -3 6 C-1.90833725 4.06669397 -1.90833725 4.06669397 -1 2 C-0.67 1.34 -0.34 0.68 0 0 Z " fill="#EEEEEE" transform="translate(209,248)"/>
<path d="M0 0 C1.65 0 3.3 0 5 0 C3.68 2.31 2.36 4.62 1 7 C0.67 7 0.34 7 0 7 C0 4.69 0 2.38 0 0 Z " fill="#EEEEEE" transform="translate(45,90)"/>
<path d="M0 0 C1.98 0 3.96 0 6 0 C4.3545622 1.68762851 2.68711423 3.3540349 1 5 C0.67 5 0.34 5 0 5 C0 3.35 0 1.7 0 0 Z " fill="#EEEEEE" transform="translate(210,255)"/>
<path d="M0 0 C4 4.75 4 4.75 4 7 C2.68 7 1.36 7 0 7 C0 4.69 0 2.38 0 0 Z " fill="#EFEFEF" transform="translate(45,248)"/>
</svg>
